<svg xmlns="http://www.w3.org/2000/svg" xmlns:xlink="http://www.w3.org/1999/xlink" id="Layer_1" x="0px" y="0px" viewBox="0 0 156.6 102.3" style="enable-background:new 0 0 156.6 102.3;" xml:space="preserve"><style type="text/css">	.st0{fill:#044826;}	.st1{fill-rule:evenodd;clip-rule:evenodd;fill:#044826;}	.st2{fill-rule:evenodd;clip-rule:evenodd;fill:#4EA146;}	.st3{fill:#231F20;}</style><g>	<path class="st0" d="M52.1,74.6c-1.1,0-2.2-0.2-3.2-0.5c-1-0.3-2-0.8-2.8-1.5c-0.8-0.6-1.5-1.4-2-2.4c-0.5-1-0.8-2.1-0.8-3.4V51  h3.6v16c0,0.7,0.1,1.3,0.4,1.8c0.3,0.5,0.7,1,1.2,1.3c0.5,0.4,1,0.6,1.7,0.8c0.6,0.2,1.2,0.3,1.9,0.3c1,0,2-0.1,2.9-0.2  c0.9-0.1,1.8-0.3,2.5-0.6V51h3.6v21.9c-1.1,0.4-2.1,0.7-3,0.9c-0.9,0.2-1.7,0.4-2.5,0.5c-0.7,0.1-1.4,0.2-2,0.2  C53.1,74.6,52.6,74.6,52.1,74.6"></path>	<path class="st0" d="M74.5,62.8c-0.7,0-1.4,0.1-2.1,0.2c-0.7,0.2-1.3,0.4-1.8,0.8c-0.5,0.4-0.9,0.8-1.2,1.4  c-0.3,0.6-0.5,1.3-0.5,2.1c0,1.5,0.5,2.6,1.4,3.2c0.9,0.6,2.1,1,3.4,1c0.3,0,0.7,0,1,0c0.7,0,1.3,0,2,0c1-0.1,2-0.2,3-0.4v-7.4  c-0.7-0.2-1.5-0.4-2.4-0.6C76.3,62.9,75.4,62.8,74.5,62.8 M79.6,58c0-0.7-0.2-1.2-0.5-1.8c-0.3-0.5-0.7-1-1.2-1.3  c-0.5-0.4-1.1-0.6-1.7-0.8c-0.7-0.2-1.3-0.3-2-0.3c-1,0-2.1,0.2-3.1,0.6c-1,0.4-1.9,1-2.6,1.9l-2.2-2.2c1.1-1.2,2.3-2.1,3.8-2.7  c1.5-0.6,2.9-0.9,4.4-0.9c1.1,0,2.2,0.2,3.2,0.5c1.1,0.3,2,0.8,2.8,1.4c0.8,0.6,1.5,1.4,2,2.3c0.5,0.9,0.7,2,0.7,3.3v15  c-1.6,0.6-3.2,1-4.8,1.2c-1.4,0.2-2.8,0.4-4.2,0.4c-0.2,0-0.3,0-0.5,0c-1.2,0-2.3-0.1-3.3-0.4c-1-0.3-1.9-0.7-2.6-1.3  c-0.7-0.6-1.3-1.3-1.7-2.2c-0.4-0.9-0.6-2-0.6-3.2c0-1.3,0.2-2.4,0.7-3.3c0.5-0.9,1.1-1.7,1.9-2.3c0.8-0.6,1.7-1,2.8-1.3  c1-0.3,2.1-0.4,3.3-0.4c1.9,0,3.8,0.4,5.5,1.1V58z"></path>	<path class="st0" d="M96.3,74.6c-2.5,0-4.5-0.7-5.8-2c-1.4-1.3-2-3.2-2-5.6v-23c1.1,0.1,2.3,0.1,3.6,0.1v22.9c0,1.3,0.3,2.3,1,3.1  c0.7,0.8,1.8,1.1,3.3,1.1V74.6z"></path>	<rect x="99.2" y="51" class="st0" width="3.8" height="23.2"></rect>	<path class="st0" d="M130.8,62.8c-0.7,0-1.4,0.1-2.1,0.2c-0.7,0.2-1.3,0.4-1.8,0.8c-0.5,0.4-0.9,0.8-1.2,1.4  c-0.3,0.6-0.5,1.3-0.5,2.1c0,1.5,0.5,2.6,1.4,3.2c0.9,0.6,2.1,1,3.4,1c0.3,0,0.7,0,1,0c0.7,0,1.3,0,2,0c1-0.1,2-0.2,3-0.4v-7.4  c-0.7-0.2-1.5-0.4-2.4-0.6C132.6,62.9,131.7,62.8,130.8,62.8 M135.9,58c0-0.7-0.2-1.2-0.5-1.8c-0.3-0.5-0.7-1-1.2-1.3  c-0.5-0.4-1.1-0.6-1.7-0.8c-0.7-0.2-1.3-0.3-2-0.3c-1,0-2.1,0.2-3.1,0.6c-1,0.4-1.9,1-2.6,1.9l-2.2-2.2c1.1-1.2,2.3-2.1,3.8-2.7  c1.5-0.6,2.9-0.9,4.4-0.9c1.1,0,2.2,0.2,3.2,0.5c1.1,0.3,2,0.8,2.8,1.4c0.8,0.6,1.5,1.4,2,2.3c0.5,0.9,0.7,2,0.7,3.3v15  c-1.6,0.6-3.2,1-4.8,1.2c-1.4,0.2-2.8,0.4-4.2,0.4c-0.2,0-0.3,0-0.5,0c-1.2,0-2.3-0.1-3.3-0.4c-1-0.3-1.9-0.7-2.6-1.3  c-0.7-0.6-1.3-1.3-1.7-2.2c-0.4-0.9-0.6-2-0.6-3.2c0-1.3,0.2-2.4,0.7-3.3c0.5-0.9,1.1-1.7,1.9-2.3c0.8-0.6,1.7-1,2.8-1.3  c1-0.3,2.1-0.4,3.3-0.4c1.9,0,3.8,0.4,5.5,1.1V58z"></path>	<path class="st0" d="M140.5,83c-0.6,0-1.1-0.2-1.4-0.5c-0.3-0.3-0.5-0.7-0.5-1.3v-5.6h0.9v5.6c0,0.3,0.1,0.5,0.3,0.7  c0.2,0.2,0.4,0.3,0.8,0.3V83z M137.2,82.9h-0.9v-5.3h0.9V82.9z M136.1,76.1c0-0.2,0.1-0.3,0.2-0.4c0.1-0.1,0.3-0.2,0.5-0.2  c0.2,0,0.3,0.1,0.5,0.2c0.1,0.1,0.2,0.3,0.2,0.4c0,0.2-0.1,0.3-0.2,0.4c-0.1,0.1-0.3,0.2-0.5,0.2c-0.2,0-0.3-0.1-0.5-0.2  C136.2,76.4,136.1,76.3,136.1,76.1z M133.3,82.3c0.1,0,0.3,0,0.4-0.1c0.1,0,0.2-0.1,0.3-0.2c0.1-0.1,0.2-0.2,0.2-0.3  c0.1-0.1,0.1-0.2,0.1-0.4c0-0.1,0-0.3-0.1-0.4c-0.1-0.1-0.2-0.2-0.3-0.2c-0.1-0.1-0.2-0.1-0.4-0.1c-0.1,0-0.3-0.1-0.4-0.1  c-0.2,0-0.5-0.1-0.7-0.1c-0.2-0.1-0.5-0.1-0.6-0.3c-0.2-0.1-0.3-0.3-0.5-0.4c-0.1-0.2-0.2-0.4-0.2-0.7c0-0.3,0.1-0.5,0.2-0.7  c0.1-0.2,0.3-0.4,0.5-0.5c0.2-0.1,0.4-0.2,0.7-0.3c0.2-0.1,0.5-0.1,0.7-0.1c0.3,0,0.6,0.1,0.9,0.2c0.3,0.1,0.6,0.3,0.8,0.5  l-0.5,0.6c-0.2-0.2-0.4-0.3-0.6-0.4c-0.2-0.1-0.4-0.1-0.6-0.1c-0.1,0-0.3,0-0.4,0c-0.1,0-0.3,0.1-0.4,0.1c-0.1,0.1-0.2,0.1-0.3,0.2  c-0.1,0.1-0.1,0.2-0.1,0.4c0,0.2,0,0.3,0.1,0.4c0.1,0.1,0.2,0.2,0.3,0.2c0.1,0.1,0.3,0.1,0.4,0.1c0.2,0,0.3,0.1,0.4,0.1  c0.2,0,0.4,0.1,0.7,0.2c0.2,0.1,0.4,0.2,0.6,0.3c0.2,0.1,0.3,0.3,0.4,0.5c0.1,0.2,0.2,0.4,0.2,0.7c0,0.3-0.1,0.5-0.2,0.7  c-0.1,0.2-0.3,0.4-0.4,0.5c-0.2,0.1-0.4,0.2-0.6,0.3c-0.2,0.1-0.5,0.1-0.7,0.1c-0.5,0-0.9-0.1-1.3-0.2c-0.4-0.2-0.7-0.5-1-0.9  l0.7-0.4c0.2,0.3,0.4,0.5,0.7,0.6C132.7,82.2,133,82.3,133.3,82.3z M127.9,80.3c-0.2,0-0.3,0-0.5,0.1c-0.2,0-0.3,0.1-0.4,0.2  c-0.1,0.1-0.2,0.2-0.3,0.3c-0.1,0.1-0.1,0.3-0.1,0.5c0,0.3,0.1,0.6,0.3,0.7c0.2,0.1,0.5,0.2,0.9,0.2c0.1,0,0.2,0,0.2,0  c0.2,0,0.3,0,0.5,0c0.3,0,0.5,0,0.7-0.1v-1.7c-0.2-0.1-0.4-0.1-0.6-0.1C128.4,80.3,128.2,80.3,127.9,80.3z M129.2,79.2  c0-0.2,0-0.3-0.1-0.4c-0.1-0.1-0.2-0.2-0.3-0.3c-0.1-0.1-0.3-0.1-0.4-0.2c-0.2,0-0.3-0.1-0.5-0.1c-0.3,0-0.5,0-0.8,0.1  c-0.3,0.1-0.5,0.2-0.6,0.4l-0.6-0.5c0.3-0.3,0.6-0.5,0.9-0.6c0.4-0.1,0.7-0.2,1.1-0.2c0.3,0,0.5,0,0.8,0.1c0.3,0.1,0.5,0.2,0.7,0.3  c0.2,0.1,0.4,0.3,0.5,0.5c0.1,0.2,0.2,0.5,0.2,0.8v3.5c-0.4,0.1-0.8,0.2-1.2,0.3c-0.4,0.1-0.7,0.1-1.1,0.1c0,0-0.1,0-0.1,0  c-0.3,0-0.6,0-0.8-0.1c-0.3-0.1-0.5-0.2-0.6-0.3c-0.2-0.1-0.3-0.3-0.4-0.5c-0.1-0.2-0.2-0.5-0.2-0.7c0-0.3,0.1-0.6,0.2-0.8  c0.1-0.2,0.3-0.4,0.5-0.5c0.2-0.1,0.4-0.2,0.7-0.3c0.3-0.1,0.5-0.1,0.8-0.1c0.5,0,0.9,0.1,1.4,0.3V79.2z M124.7,78.3  c-0.2,0-0.3,0-0.5,0.1c-0.2,0-0.3,0.1-0.4,0.2c-0.1,0.1-0.2,0.2-0.3,0.3c-0.1,0.1-0.1,0.3-0.1,0.4v3.7h-0.9v-3.7  c0-0.3,0.1-0.6,0.2-0.8c0.1-0.2,0.3-0.4,0.5-0.6c0.2-0.1,0.4-0.3,0.7-0.3c0.3-0.1,0.5-0.1,0.8-0.1c0.1,0,0.2,0,0.2,0  c0.1,0,0.2,0,0.2,0v0.8c-0.1,0-0.2,0-0.2,0C124.9,78.3,124.8,78.3,124.7,78.3z M118.9,82c0.2,0,0.4,0,0.6,0c0.2,0,0.4-0.1,0.6-0.2  c0.2-0.1,0.3-0.2,0.4-0.4c0.1-0.2,0.1-0.4,0.1-0.6c0-0.2,0-0.5-0.1-0.6c-0.1-0.2-0.2-0.3-0.3-0.4c-0.2-0.1-0.3-0.2-0.5-0.2  c-0.2,0-0.5-0.1-0.7-0.1h-2.1V82h2.1C118.8,82,118.8,82,118.9,82z M118.7,78.6c0.4,0,0.7-0.1,1-0.2c0.3-0.2,0.4-0.4,0.4-0.8  c0-0.2,0-0.4-0.1-0.5c-0.1-0.1-0.2-0.2-0.3-0.3c-0.1-0.1-0.3-0.1-0.4-0.2c-0.2,0-0.4-0.1-0.5-0.1h-2.1v2.1H118.7z M121.1,77.5  c0,0.3,0,0.6-0.1,0.8c-0.1,0.3-0.3,0.5-0.5,0.7c0.4,0.2,0.6,0.4,0.8,0.7c0.2,0.3,0.2,0.7,0.2,1.1c0,0.4-0.1,0.7-0.2,1  c-0.1,0.3-0.3,0.5-0.6,0.6c-0.2,0.2-0.5,0.3-0.8,0.4c-0.3,0.1-0.7,0.1-1.1,0.1h-3v-7.3h3c0.3,0,0.6,0,0.9,0.1  c0.3,0.1,0.5,0.2,0.7,0.4c0.2,0.2,0.4,0.4,0.5,0.6C121,76.9,121.1,77.2,121.1,77.5z"></path>	<path class="st1" d="M31.6,72.3c-2.5,1.5-5.4,2.4-8.5,2.4c-3.2,0-6.3-0.9-8.8-2.6c5-0.8,10.1-1.4,15-0.3  C30.2,71.9,30.9,72,31.6,72.3 M23.2,45.7c7,0,12.7,5.7,12.7,12.7c0,3.7-1.6,7-4.1,9.4c0.3,0.1,0.6,0.1,0.9,0.2c1,0.2,2,0.5,3,0.8  c2.3-2.8,3.7-6.4,3.7-10.3c0-9-7.3-16.2-16.2-16.2c-9,0-16.2,7.3-16.2,16.2c0,5.3,2.6,10.1,6.6,13l0.2-0.2c0.6-0.6,2.1-1.3,3.3-1.8  c-3.9-2.2-6.5-6.3-6.5-11.1C10.5,51.4,16.2,45.7,23.2,45.7z"></path>	<path class="st2" d="M18.3,69.5c-1.1,0.4-3.6,1.4-4.3,2.1c14.4-2.4,17.6-0.3,30.8,5.5c12.9,5.7,32,10.7,44-4.1  c-1.4,0.7-3.3,2.1-5.5,3.2c-12.7,6.4-23.2,3.5-35.1-1.7C38.2,70.1,29.9,65.2,18.3,69.5"></path>	<g>		<path class="st2" d="M141.1,39c-0.2,0-1.1,0.2-1.4,0.3c-0.5,0.1-0.9,0.2-1.3,0.4c-0.4,0.1-0.8,0.3-1.2,0.5   c-0.7,0.3-1.8,0.8-2.4,1.1c-0.2,0.1-0.4,0.2-0.5,0.3c-0.2,0.1-0.4,0.2-0.6,0.4c-0.6,0.4-1.9,1.5-2,1.5c-0.6-0.6-1-1-1.1-2.2   c-0.2-1.2,0.1-2.3,0.9-3.2c0.4-0.5,0.6-0.6,1.1-1c0.8-0.5,1.7-0.8,2.7-1c1.2-0.2,3.5-0.3,4.6,0c0.2,0.1,0.6,0.1,0.8,0.1   c0.3,0.1,0.5,0.1,0.8,0.2c1.9,0.4,5.3,1.7,5.4,1.8l0,0.1c-0.4,0.1-1.2,1-1.4,1.3l-0.3,0.6c-1.1,2.1-1.4,4-3.2,6l-1.6,1.4l-0.8,0.5   c-1,0.6-2.1,0.9-3.5,0.6c-1.7-0.3-3.4-2.5-3.3-3.8l-0.1,0.1c0,0-0.1,0.1-0.1,0.1c-0.4,0.5-1,1.3-1.3,1.8c-0.4,0.7-0.8,1.3-1,2.2   c0,0.2,0,0.3-0.1,0.5c-0.2,1.1-1.5,0.5-1.1-0.6c0.3-0.8,1.1-1.8,1.6-2.5c0.2-0.2,0.3-0.4,0.4-0.6c0.7-1,2-2.3,3-3.1   c1.1-0.9,2.3-1.7,3.6-2.4c0.6-0.3,1.4-0.7,2-0.9L141.1,39C141.1,39,141.1,39,141.1,39"></path>		<path class="st2" d="M135.1,24.9c0.7-0.5,1.3-1.1,1.9-1.6C136.1,23,135,22.9,135.1,24.9 M112.1,39.6c-1.8,1-3.5,1.8-5,2.3l0,0   c1.6-0.5,3.5-1.3,5.5-2.3C112.6,39.7,112.3,39.6,112.1,39.6z M127.8,28.8c-0.4,0.4-0.9,0.7-1.3,1.1c0,0.1,0.1,0.2,0.2,0.2   c0.2,0.1,0.1,0.1,0.2,0.1c0.2,0,0.2,0,0.3-0.1c0.1-0.1,0.1,0,0.2-0.1c0.1-0.1,0-0.1,0.1-0.2c0.1-0.1,0-0.1,0.2-0.2   c0.1-0.1,0.2-0.1,0.2-0.2c0-0.1,0,0,0-0.2c0-0.2-0.1-0.1-0.1-0.3C127.8,28.9,127.8,28.8,127.8,28.8z M131.4,3   c18.8-2.7,15.9,6.3,6.6,16.4c0.1,0.1,0.2,0.1,0.4,0.2c0,0.2,0,0.5,0.1,0.7c-3.1,5.8,0.7-0.4-0.1,1.7l0,0c-0.1,0.1-0.3,0.3-0.4,0.6   C151,10.9,156.7-0.6,131.4,3z"></path>		<path class="st1" d="M91.2,24.5c0,0,0-0.1-0.1-0.2c-0.2-0.3-0.2-0.3-0.2-0.3s0.1-0.2,0.2-0.1c0.1,0.1,0.2,0.2,0.4,0.4   C91.3,24.4,91.3,24.5,91.2,24.5 M85.6,30.4c-0.3-0.1-0.7-0.2-1.3-0.4c0-0.3-0.2-0.6-0.5-0.8c0-0.3-0.1-0.6-0.4-0.8   c0.1-0.5,0.2-1.1-0.2-1.5c0.1-0.4-0.1-0.8-0.4-1c0.3-0.5,0.4-1,0.2-1.5c0.4-0.4,0.3-1-0.1-1.4c0.7-0.7,0.8-1.3,0.1-2.1   c0-0.1,0.1-0.5,0.1-0.5v0c0.3-0.5,0.7-1,0.2-1.6c0.2-0.4,0.2-0.8,0.2-1.1c0,0,0.1,0,0.2,0c0.3,0,0.2-0.1,0.4,0   c0.1,0.1,0.3,0.1,0.1,0.2c-0.2,0.1-0.3,0.3-0.3,0.3s0.2,0.2,0.3,0.3c0.1,0,0,0.1,0.3-0.2c0.3-0.2,0.2-0.2,0.3-0.4   c0.1-0.2,0.1-0.3,0.1-0.5c0.1-0.2,0-0.4,0.2-0.3c0.2,0,0.3-0.1,0.3,0.1c0,0.1,0,0-0.1,0.2c0,0.2,0,0.4,0.1,0.3   c0.1-0.1-0.1-0.3,0.2-0.3c0.2,0,0.2-0.1,0.4,0c0.2,0,0.2,0,0.5,0.1c0.2,0.1,0.1,0,0.3,0.1c0.2,0.1,0.2,0,0.3,0.1   c0.2,0.1,0.2,0.1,0.3,0.2c0.1,0.1,0.4,0.2,0.5,0.2c0.1,0.1,0.2,0,0.2,0.2c0,0.2,0,0.1,0.1,0.3c0.1,0.2,0.1,0.2,0.2,0.3   c0.2,0.2,0.2,0.1,0.2,0.2c0.1,0.1-0.1,0.1,0.1,0.3c0.1,0.2,0-0.1,0.2,0.2c0.3,0.3,0.3,0.3,0.4,0.4c0.1,0.1,0.1,0.1,0.1,0.3   c0,0.2,0,0.2,0,0.3c0,0.1-0.1,0.6-0.1,0.6v0.4c-0.1,0.4,0,0.7,0,0.7s0,0.1,0.1,0.3c0.1,0.2,0.3,0.5,0.3,0.5s0.1,0.1,0.1,0.2   c0.1,0.1,0.1,0.1,0.2,0.2c0.1,0.1,0.2,0,0.3,0.1c0.1,0.2,0.1-0.1,0.2,0.3c0.1,0.4,0.1,0.4,0.2,0.5c0.1,0.1,0.1,0,0.1,0.2   c0,0,0,0.1,0,0.1C88.9,26.7,87.1,28.6,85.6,30.4z M97.4,39.4c-0.1,0-0.3,0.1-0.4,0.2c-0.3-0.4-0.7-0.3-1.1-0.2   c-0.3-0.4-1-0.4-1.5-0.1c-0.2-0.4-0.9-0.6-1.3-0.3c-0.3-0.7-0.6-1.7-1.6-1.3c-0.2-0.5-0.7-0.6-1.2-0.5c0-0.5-0.4-0.9-1-0.9   c-0.1-0.3,0.1-0.4-0.1-0.7c-0.3-0.5-0.7-0.6-1.2-0.5c0-0.4-0.3-0.8-0.6-0.9c-0.1-0.2-0.3-0.4-0.5-0.6c1.3-2.2,3.3-4.6,5.6-7.1   c0,0.1,0.1,0.2,0.4,0.3c0.3,0.1,0.2,0.1,0.4,0.1c0.2,0-0.1-0.1,0.2,0c0.3,0.1,0.3,0,0.4,0.1c0.2,0.1,0.1,0,0.2,0.1   c0.2,0.1,0,0,0.3,0.1c0.2,0.1-0.1,0,0.4,0.2c0.4,0.2,0.3,0.1,0.6,0.3c0.2,0.2,0.4,0.5,0.4,0.5l0.4,0.2c0.3,0.1,0.5,0.2,0.5,0.2   s0.2,0.4,0.1,0.4c-0.1,0.1,0,0.1-0.2,0.2c-0.2,0.1-0.3,0.1-0.3,0.2c0,0.1-0.1,0.3-0.1,0.4c0,0.1,0.1,0.3,0.1,0.3s-0.1,0-0.2,0.2   c0,0.2,0.3,0.6,0.3,0.6l0.3,0.6l0.1,0.4c0.3,0.3,0.2,0.3,0.4,0.4c0.2,0.2,0.2,0.1,0.3,0.2c0.1,0.1,0.2,0.3,0.2,0.3s0.1,0.7,0,0.8   c0,0.1,0.1,0.4,0,0.5c-0.1,0.1-0.1,0.1-0.1,0.2c0,0.1-0.1,0.2-0.1,0.3c0,0.2,0,0.1,0,0.2c0,0.1,0,0,0,0.3   c-0.1,0.3-0.2,0.4-0.2,0.5c0,0.1-0.2,0.4-0.2,0.4l0,0.5c0,0.4,0.1,0.5,0.1,0.5l-0.1,0.5c0,0.3,0,0.4,0,0.5c0,0.1,0,0.1,0,0.2   c0,0.2-0.1,0.2-0.1,0.3c0,0.1,0,0.1,0,0.3c0,0.2-0.2,0.2,0,0.4C97.3,39.3,97.1,39.1,97.4,39.4C97.4,39.3,97.4,39.3,97.4,39.4z    M127.6,28.7c-0.1,0-0.3,0-0.4,0.2c-0.2,0.2-0.1,0.1-0.3,0.2c-0.1,0.1-0.1,0.1-0.2,0.2c-0.1,0.1-0.3,0-0.3,0.1c0,0.2-0.1,0,0,0.3   c0.1,0.2,0.1,0.4,0.3,0.4c0.2,0.1,0.1,0.1,0.2,0.1c0.2,0,0.2,0,0.3-0.1c0.1-0.1,0.1,0,0.2-0.1c0.1-0.1,0-0.1,0.1-0.2   c0.1-0.1,0-0.1,0.2-0.2c0.1-0.1,0.2-0.1,0.2-0.2c0-0.1,0,0,0-0.2c0-0.2-0.1-0.1-0.1-0.3c0-0.1,0-0.2,0-0.2L127.6,28.7z M130.6,30   c-0.1,0-0.2-0.1-0.2-0.1s0-0.1-0.1-0.1c-0.1,0-0.1-0.1-0.2,0c0,0.1-0.3-0.2-0.1,0.1c0.2,0.3,0.2,0.3,0.3,0.4c0.1,0.1,0,0,0.1,0.1   c0.1,0-0.1-0.1,0.1,0.1c0.2,0.1,0.1,0.1,0.2,0.2c0.1,0.1-0.1-0.1,0.1,0.1c0.2,0.2,0,0,0.3,0.2c0.2,0.1,0.3,0.1,0.3,0.1   c0.1,0,0,0,0.1,0c0.1,0-0.1-0.1,0.2,0c0.3,0,0.3,0,0.4,0c0.1,0.1,0,0,0.1,0.1c0.1,0.1,0.1,0.1,0.2,0.2c0.1,0.1,0.2,0.1,0.3,0.1   c0.1,0,0.2,0,0.1-0.1c-0.1-0.1-0.2-0.2-0.2-0.2s-0.1,0-0.2-0.1c-0.1-0.1-0.1-0.1-0.2-0.2c-0.1,0-0.1,0-0.2-0.2   c-0.1-0.1-0.1-0.2-0.2-0.2c-0.1,0-0.1-0.1-0.2-0.1c-0.2,0,0,0-0.2,0c-0.2,0-0.2-0.1-0.3-0.1C131.1,30.1,130.6,30,130.6,30z    M116.7,31.7c0.1-0.1,0-0.2,0.1-0.1c0.1,0.1,0.3,0,0.2,0.2c-0.1,0.1-0.1,0.2-0.2,0.3c0,0.1-0.1,0-0.1,0.2c0,0.2,0,0.3,0,0.4   c0,0.1,0,0,0,0.2c-0.1,0.1-0.1,0.1-0.1,0.3c0,0.2,0,0.1-0.1,0.2c0,0.1,0,0.1-0.1,0.2c0,0,0,0-0.1,0c-0.1,0-0.1,0.1-0.2,0   c-0.1-0.1-0.2-0.1-0.2-0.1s-0.1,0,0-0.1c0-0.1,0-0.1,0-0.2c0-0.1,0-0.1,0-0.2c0-0.1,0-0.1,0-0.2c0-0.1,0-0.1,0-0.3   c0-0.1-0.1-0.1,0-0.2c0.1-0.1,0-0.1,0.1-0.2c0.1,0,0,0,0.2,0c0.1,0,0,0,0.2,0C116.5,31.9,116.7,31.7,116.7,31.7z M124.4,6.8   l-0.1-0.1c0,0-0.2,0-0.3,0.1c-0.1,0.1-0.1,0-0.1,0.2c0,0.1-0.1,0,0,0.2c0,0.2,0,0.1,0,0.2c0,0.2,0,0,0,0.2c0,0.2,0,0,0,0.2   c0,0.2,0.1,0.2,0.1,0.3c0,0.1,0,0.1,0.1,0.2c0.1,0.2,0,0.1,0.1,0.2c0.1,0.2,0.1,0.1,0.1,0.2c0.1,0.1,0.1,0.3,0.2,0.3   c0.1,0,0.1,0.1,0.3,0.1c0.1,0-0.2,0,0.2-0.1c0.4-0.1,0.5,0,0.6-0.1c0-0.1,0.1-0.1,0-0.2c0-0.1,0.2-0.1-0.1-0.2   c-0.3-0.1-0.3-0.2-0.4-0.2c-0.1,0-0.3,0-0.4,0.1c-0.1,0-0.5,0-0.3-0.1c0.2-0.1,0.1,0,0.2-0.1c0.1-0.1,0.1-0.3,0.1-0.3s0-0.1,0-0.2   c0-0.1,0-0.1-0.2-0.2c-0.1-0.1-0.2-0.1-0.2-0.2c0-0.1-0.1-0.1-0.1-0.2c0-0.1,0-0.2,0-0.2L124.4,6.8z M118.8,7   C118.8,6.9,118.8,7,118.8,7c0.1-0.2,0.1-0.1,0.1-0.2c0-0.1,0.1-0.1,0-0.2c-0.1,0-0.1-0.1-0.2,0c-0.1,0.1-0.1,0.1-0.1,0.1   c0,0.1,0,0,0,0.1c0,0.1,0,0.1,0,0.1c0,0,0,0.2,0.1,0.2c0,0,0,0.1,0.1,0C118.7,7,118.8,7,118.8,7z M118.1,6.4c0,0-0.2,0.1-0.2,0.1   c0,0,0,0-0.1,0.1c-0.1,0.1-0.1,0-0.1,0.1c0,0.1-0.1,0,0,0.1c0.1,0.1,0.1,0.1,0.1,0.1c0.1,0,0,0,0.1,0c0.1,0,0,0.1,0.1-0.1   c0.1-0.2,0.1-0.2,0.1-0.2c0.1-0.1,0,0,0.1-0.1c0.1-0.1,0.2,0,0.1-0.1c-0.1-0.1,0-0.2-0.1-0.2C118.2,6.3,118.1,6.4,118.1,6.4z    M118.1,13.4c0,0-0.1,0-0.1-0.2s-0.1-0.1-0.1-0.3c0-0.2,0-0.2,0-0.3c0-0.1,0-0.1,0-0.3c0.1-0.1,0-0.1,0.1-0.3   c0.1-0.1,0.1-0.2,0.1-0.2c0.1-0.1,0-0.1,0.1-0.2c0.1-0.2,0-0.1,0.1-0.2c0.1-0.1,0-0.1,0.2-0.2c0.1-0.1,0.2-0.1,0.3-0.2   c0.1,0,0,0,0.2-0.1c0.2-0.1,0.1-0.1,0.3-0.1c0.2-0.1,0.2,0,0.3-0.1c0.1-0.1,0.1-0.1,0.1-0.2c0-0.1,0.1-0.1,0.1-0.2   c0-0.1,0-0.2,0-0.2l-0.3,0c0,0-0.1,0.1-0.2,0.1c-0.1,0-0.1,0.1-0.2,0.1c0,0,0-0.1-0.2,0c-0.2,0.1-0.2,0-0.3,0.1   c-0.1,0.1-0.2,0.2-0.3,0.3c0,0,0.1,0-0.1,0.1c-0.1,0.1-0.1,0.1-0.2,0.2c-0.1,0.1-0.1,0.1-0.1,0.2c-0.1,0.1-0.1,0.1-0.1,0.1   c0,0,0,0-0.1,0.1c-0.1,0.2-0.1,0.1-0.2,0.3c0,0.2,0,0.1-0.1,0.3c-0.1,0.2-0.1,0.2-0.2,0.3c-0.1,0.1-0.1,0.1-0.1,0.2   c0,0.1-0.1,0.3-0.1,0.4c0,0,0,0.1,0.1,0.2c0.1,0.1,0,0.2,0.2,0.3c0.1,0.1,0.2,0.1,0.2,0.1C117.8,13.5,118.1,13.4,118.1,13.4z    M106.3,16.1c0.1,0,0,0,0.1-0.1c0.2-0.1,0.1-0.1,0.2-0.1c0.1-0.1,0.1,0,0.1-0.1c0-0.1,0-0.1,0-0.2c0-0.1,0-0.1,0-0.2   c-0.1-0.1-0.1-0.2-0.1-0.2s0.1-0.1-0.1-0.1c-0.2,0-0.2,0-0.2,0c-0.1,0,0,0-0.1,0c-0.1,0,0,0-0.1,0.1c-0.1,0.1,0,0-0.2,0.1   c-0.1,0.1-0.1,0.1-0.1,0.1c-0.1,0-0.1,0-0.2-0.1c0-0.1,0-0.1,0-0.1s0.1-0.1-0.1,0c-0.2,0-0.1,0-0.2,0c-0.1,0.1,0-0.1-0.1,0.1   c0,0.1-0.1,0,0,0.1c0,0.1-0.1,0,0,0.1c0.1,0.1,0.1,0,0.1,0.1c0.1,0.1,0,0,0.1,0.1c0,0.1,0,0,0,0.1c0.1,0.1,0.1,0,0.1,0.1   c0,0,0,0,0.1,0.1c0.1,0.1,0,0.1,0.1,0.1c0.1,0,0,0,0.2,0s0.1,0,0.2,0C106.3,16.2,106.3,16.1,106.3,16.1z M100.6,5.4   c0.1,0,0.3,0.1,0.4,0.1c0,0,0,0,0,0.1c-0.1,0.1-0.1,0.2-0.2,0.2c0,0-0.2,0.3-0.2,0c0-0.3,0-0.1,0-0.3L100.6,5.4z M94.2,11.4   c0,0-0.1,0,0.1,0c0.2,0,0.2,0,0.3,0c0.1,0,0.1,0,0.1,0c0.1,0.1,0.1,0,0.1,0.1c0,0.1,0,0.1,0,0.1c-0.1,0.1-0.1,0.1-0.1,0.2   c0,0.1-0.1,0.1-0.1,0.2c0,0.1,0,0.1-0.1,0.2c-0.1,0.1-0.1,0.1-0.1,0.2c0,0,0,0.1-0.1,0c-0.1-0.1-0.1,0-0.1-0.1   c0-0.1,0.1-0.1,0-0.2c-0.1-0.2-0.1-0.2-0.1-0.3s0,0,0-0.1C94.1,11.6,94.2,11.4,94.2,11.4z M93,13.5c-0.1-0.1-0.1-0.1-0.2-0.2   c-0.1-0.1-0.1,0-0.1-0.1c-0.1-0.1-0.1,0-0.1-0.2c0-0.2,0-0.2,0-0.2c0-0.1,0-0.1-0.1-0.2c0-0.1-0.1-0.1-0.1-0.2   c-0.1-0.1,0-0.2-0.1-0.3c0-0.1,0-0.2-0.1-0.1c0,0.1-0.2,0.3-0.2,0.4c0,0.1,0.1,0.1,0,0.1c0,0.1-0.2,0.1-0.2,0   c0-0.2-0.1-0.2-0.1-0.2s-0.1-0.1-0.2-0.1c-0.1,0,0,0.1-0.1,0.1c-0.1,0.1-0.1,0.1-0.1,0.1c-0.1,0-0.1,0-0.1-0.1   c-0.1,0-0.1-0.1-0.1-0.1c0-0.1,0.1-0.2-0.1-0.1c-0.1,0.1-0.1,0.1-0.2,0.1c-0.1,0-0.2,0.1-0.2-0.1c0-0.1,0-0.1,0-0.2   c0,0,0.1,0,0-0.1c-0.1-0.1-0.1,0-0.2-0.2c-0.2-0.1,0-0.1-0.2-0.2c-0.2-0.1-0.1-0.1-0.2-0.1c-0.2,0,0-0.1-0.2,0   c-0.2,0.1-0.2,0-0.2,0.1c-0.1,0.1-0.1-0.1-0.1,0.2c0,0.3,0,0.2,0,0.4c0,0.2,0,0.1-0.1,0.2c0,0.1-0.1,0.2,0,0.3   c0,0.1,0.2,0.2,0.3,0.3c0.1,0.1,0.1,0.1,0.3-0.1c0.2-0.1,0.1-0.2,0.3-0.4c0.2-0.2,0.1-0.3,0.2-0.2c0.1,0.1,0.1,0,0.1,0.2   c0,0.1-0.1,0.2,0,0.4c0.1,0.2,0.2,0.2,0.3,0.2c0.1,0-0.1,0.2-0.1,0.2c0,0.1-0.1,0.2,0.2,0.2c0.3,0,0.2-0.1,0.4,0   c0.2,0.1,0.4-0.1,0.2,0.1c-0.2,0.1-0.3,0.2-0.3,0.2s-0.2-0.2-0.1,0.1c0.1,0.3,0.2,0.2,0.2,0.3c0.1,0.1,0,0.2,0.2,0.2   c0.2,0,0.2,0,0.4-0.1c0.2,0,0.2-0.1,0.3-0.1c0.1,0,0.1,0.1,0.3,0.1c0.1,0,0.2,0,0.4,0c0.2,0,0.3-0.2,0.2-0.3   C92.9,13.7,93,13.5,93,13.5z M91.8,9.9c0.1,0.1,0.1,0,0.2,0.2c0.1,0.2,0.1,0.2,0.1,0.3c0,0.1,0.2-0.1,0,0.1   c-0.2,0.3-0.1,0.2-0.2,0.3c-0.2,0.1-0.3,0.2-0.4,0.3c-0.1,0.1-0.4,0.1-0.4,0c0-0.1,0,0,0-0.2c0-0.2,0-0.3,0-0.3s-0.2-0.2-0.4-0.1   c-0.2,0.1-0.2,0.1-0.2,0.1s0.1,0-0.1-0.1c-0.2-0.1-0.2-0.1-0.3-0.2c-0.1,0-0.2-0.2-0.4-0.2c-0.2,0-0.3-0.2-0.1-0.3   c0.2-0.1,0.1-0.3,0.4-0.3c0.3,0,0.2-0.1,0.3,0c0.1,0,0-0.1,0.1,0.1c0.1,0.2,0.1,0.1,0.1,0.2c0,0.1,0.2,0.2,0.3,0.3   c0.2,0.1,0.1,0,0.2,0.1c0.1,0.1,0,0.1,0.1,0.1c0.1,0,0.2-0.1,0.2-0.1s0-0.1,0.1-0.1c0,0-0.2-0.3-0.2-0.3s0-0.1,0.1-0.1   C91.7,9.7,91.8,9.8,91.8,9.9L91.8,9.9z M93.6,10.7c0-0.1,0-0.1,0-0.3c0-0.1,0.1,0,0-0.2c-0.1-0.1-0.1-0.2-0.1-0.2   s-0.1-0.1-0.1-0.2c0,0,0-0.1-0.1,0c0,0,0,0-0.1,0c-0.1,0-0.1,0-0.2,0c-0.2,0-0.2-0.1-0.2,0.1c0,0.1-0.2,0,0,0.1   c0.1,0.2,0.1,0,0.2,0.2c0.1,0.2,0,0,0.1,0.2c0.1,0.2,0,0.2,0.1,0.2c0.1,0,0.4,0.1,0.4,0.1L93.6,10.7z M95.7,11.6   c0,0-0.2-0.2-0.3,0c-0.2,0.2-0.1,0.1-0.2,0.2c-0.1,0.1,0,0-0.1,0.1C95,12,95,11.8,95,12.1c0,0.2-0.1,0-0.1,0.2   c0,0.2,0,0.1,0.1,0.3c0.1,0.2,0,0,0.1,0.2c0.1,0.2,0,0.1,0.1,0.2c0.1,0.1,0,0.1,0.1,0.2c0.1,0.1,0.1,0,0.1,0.1   c0.1,0.1-0.1,0,0.2,0.1c0.3,0,0,0.1,0.4,0c0.3,0,0.4-0.1,0.5-0.1c0.1,0,0.2,0,0.3,0.1c0.2,0.1,0.1,0,0.2,0.1   c0.1,0.1,0.1,0.1,0.2,0.1c0,0.1,0,0,0,0.1c0,0.1,0-0.1,0,0.2c0,0.3,0,0.2,0,0.3c0,0.1-0.1,0.5-0.1,0.5c0,0-0.1,0-0.2,0.1   C97,15,96.9,15,96.8,15.2c-0.1,0.2-0.1,0.2-0.1,0.3c0,0.1-0.1,0.2,0,0.3c0.1,0.1,0.2,0.1,0.3,0.1c0.1,0,0.1-0.1,0.2,0   c0.1,0.1,0,0,0.2,0.1c0.2,0.1,0.2,0,0.3,0.1c0.1,0.1,0.2,0.2,0.2,0.2c0.1,0.1,0,0,0.1,0.1c0.1,0,0,0,0.1,0   c0.1,0.1,0.3,0.1,0.3,0.1l0.2,0.1c0,0,0.2-0.1,0.1-0.2c-0.1,0-0.3-0.1-0.3-0.3c0-0.1-0.1-0.1,0-0.2c0.1-0.1,0.2,0,0.1-0.2   c-0.1-0.2,0-0.1-0.1-0.3c-0.1-0.2-0.1-0.2-0.1-0.2c0-0.1,0-0.1,0-0.1c0,0,0-0.2,0.1-0.1c0.1,0.1,0.3,0.3,0.3,0.3s0,0.2,0.2,0.1   c0.2-0.1,0.3-0.3,0.2-0.3c0-0.1,0,0-0.1-0.1c-0.1-0.1,0,0-0.2-0.2c-0.2-0.2-0.1-0.1-0.3-0.2c-0.2-0.2-0.2,0.1-0.3-0.2   c-0.1-0.3-0.3-0.5-0.2-0.6c0,0,0-0.1,0.1-0.1c0-0.1,0-0.1-0.1-0.2c-0.1-0.1,0-0.1-0.2-0.3c-0.2-0.2-0.3-0.3-0.3-0.4   c0-0.1,0-0.1-0.2-0.2c-0.1-0.1,0-0.2-0.3-0.2c-0.3,0-0.4,0.1-0.5,0.1c-0.1,0.1-0.1,0.3-0.2,0.1c-0.1-0.2-0.2-0.1-0.2-0.3   c0-0.2,0-0.2,0-0.3c0-0.1,0-0.2,0-0.3c-0.1-0.1,0.1-0.3-0.1-0.1c-0.2,0.2-0.4,0.6-0.4,0.7c0.1,0.2,0.2,0.1,0.1,0.3   c-0.1,0.2-0.1,0.2-0.1,0.2s-0.1-0.1-0.1-0.3c0-0.2,0-0.3,0-0.4c0-0.1,0-0.4,0-0.4L95.7,11.6z M94.6,10.4c0,0,0,0,0,0.2   c0.1,0.2,0,0.2,0.1,0.3c0,0.1,0,0,0.1,0.1c0.1,0-0.1,0,0.2,0c0.3,0.1,0.2,0.1,0.5,0.1s0.1-0.1,0.3,0c0.2,0,0.1,0.1,0.3,0   c0.2,0,0.3,0.1,0.3-0.1c0-0.1,0.1-0.1,0-0.2c-0.1-0.1,0-0.1-0.2-0.2c-0.2,0-0.3-0.1-0.4-0.1c-0.1,0-0.1,0-0.4,0   c-0.3,0-0.4-0.1-0.4-0.1s-0.1,0-0.2-0.2c-0.1-0.2-0.2-0.3-0.2-0.3s-0.3-0.3-0.5-0.2c-0.2,0.1-0.4,0-0.2,0.1   c0.1,0.1,0.3,0.3,0.4,0.3c0.1,0,0.1,0,0.1,0l0.2,0.2L94.6,10.4z M93.6,11.9c0.1-0.1,0.1-0.1,0.1-0.2c0-0.1,0-0.1-0.1-0.1   c-0.1,0-0.2-0.1-0.2,0c-0.1,0,0-0.1-0.1,0c-0.1,0.1-0.1,0.1-0.1,0.2c0.1,0.1,0.1,0.1,0.1,0.1c0,0,0.1,0,0,0.1   c0,0.1-0.2,0.1-0.2,0.1c0,0,0-0.1-0.1,0c-0.1,0-0.1,0-0.1,0.1c0,0.1-0.1-0.1,0,0.1c0,0.2,0,0.1,0.1,0.2c0.1,0.1-0.1-0.1,0.1,0.1   c0.1,0.2,0.1,0.2,0.1,0.2c0,0.1-0.1-0.1,0.1,0.1c0.2,0.2,0.1,0.2,0.2,0.2c0.1-0.1,0,0,0.1-0.1c0.2-0.2,0.2-0.1,0.2-0.2   c0-0.1,0-0.1,0.1-0.1c0-0.1,0.1,0,0-0.1c0-0.1,0-0.1-0.1-0.2c-0.1,0-0.1-0.1-0.1-0.1C93.6,12,93.6,11.9,93.6,11.9z M112.8,65.6   c-0.2-2.2-0.2-4.4-0.2-6.6h0.4C112.9,61.2,113,63.4,112.8,65.6z M120.9,39.4c-1.1-0.1-2.9,0-3.3,0.1c-0.1,0-0.3,0.1-0.5,0.2   c-0.3-0.1-0.5,0-0.8,0.1c-1.5-0.8-4.3,0.5-5.8-0.8c-0.9-1-1.9-1.2-3.6-0.2c-1.2,0.3-1.6-0.7-1.9,0.3c0,0.1-0.3,0.2-0.5,0.2   c0.2,0.2,0.4,0.3,0.6,0.5l1.2,1.1l1.1,1.1l1,0.9l0.7,0.8l0.7,0.4c1,0.7,1.4,0.7,1.4-0.3l-0.1-0.6c0.1-0.7,0.1-1.1,0.3-1.7l0.4-0.4   l0.5-0.3c0.5-0.2,0.6-0.2,1,0l0.5,0.3l0.4,0.4c0.3,0.6,0.3,1,0.3,1.7l-0.1,0.6c-0.1,1.1,0.3,1.1,1.4,0.3l0.7-0.4l0.7-0.8l1-0.9   l1.1-1.1l1.2-1.1C120.6,39.7,120.7,39.6,120.9,39.4z M99.1,18C99.1,17.9,99.1,17.9,99.1,18c0-0.2-0.1,0-0.1-0.3   c0-0.3,0.1-0.5-0.1-0.5c-0.2,0-0.4,0.1-0.4,0.3c0,0.2,0,0.3,0,0.3s-0.1,0.1-0.2-0.1c-0.1-0.2-0.2-0.3-0.2-0.3s-0.1-0.1-0.1-0.2   c-0.1-0.1,0,0-0.1-0.2c-0.2-0.2-0.2-0.3-0.2-0.3l-0.5-0.2h-0.2l-0.2,0.2c0,0-0.2,0.3-0.1,0.4c0.1,0.1,0.2,0.3,0.2,0.3l-0.2,0.3   c0,0,0,0.1,0.1,0.3c0.1,0.2,0.1,0.1,0.1,0.2c0,0.1,0,0.3,0,0.3l-0.2,0.2c0,0-0.2,0-0.2,0.2c0,0.1,0.1,0.1,0.2,0.3   c0.1,0.2,0.1,0.2,0.1,0.3c0,0.1,0.1,0.5-0.2,0.3c-0.3-0.2-0.4-0.1-0.4-0.3c0-0.2,0-0.1,0-0.2c0-0.1,0.1-0.1,0-0.3   c-0.1-0.2,0-0.2-0.1-0.3c-0.1-0.1,0-0.1-0.2-0.2c-0.2-0.1-0.1-0.1-0.3-0.1c-0.1-0.1,0.1,0-0.2-0.1c-0.2-0.1-0.2-0.1-0.3-0.1   c-0.1,0,0,0-0.2,0c-0.2,0-0.3-0.1-0.3-0.1l-0.1-0.3c0,0-0.3,0-0.3-0.2c0-0.2-0.1-0.1,0-0.3c0.1-0.2-0.1,0.1,0.1-0.2   c0.2-0.3,0.1-0.3,0.2-0.4c0.1-0.1,0.1-0.1,0.2-0.2c0.1-0.1,0.3-0.2,0.4-0.3c0.1-0.1,0.3-0.3,0.3-0.3l0.1-0.3c0,0,0-0.1-0.3-0.1   c-0.3,0-0.6,0.1-0.5-0.1c0.1-0.2-0.3-0.4,0.2-0.2c0.5,0.3,0.9,0,0.9,0s-0.2-0.2,0-0.2c0.1,0,0.3,0,0.4,0c0.1,0,0,0.2,0.2,0   c0.2-0.2,0.3-0.2,0.3-0.3c-0.1-0.1-0.2-0.1-0.2-0.2c0-0.1-0.1-0.2-0.1-0.3c0-0.1,0-0.2,0-0.2s0.2-0.4-0.1-0.2   c-0.3,0.2-0.4,0.3-0.4,0.5c0,0.2,0,0.1-0.1,0.3c-0.1,0.2-0.2,0.3-0.2,0.3s-0.1-0.4-0.1-0.6c0-0.2,0-0.3,0-0.3L95,14.2   c-0.2-0.2-0.2-0.1-0.4-0.3c-0.1-0.1-0.2-0.1-0.2-0.2c0-0.2,0-0.2,0-0.2s0.1-0.1,0.1-0.3c-0.1-0.2-0.1-0.3-0.1-0.3l-0.3-0.2   c0,0-0.3,0.3-0.3,0.4c0,0.1,0,0.1,0.1,0.3c0.1,0.2-0.1,0.1,0.1,0.3c0.2,0.2,0.2,0.1,0.2,0.3c0.1,0.2,0.3,0.1,0.1,0.4   c-0.3,0.3-0.4,0.5-0.4,0.5s-0.1-0.1-0.2-0.3c-0.1-0.1-0.2-0.3-0.2-0.3l-0.1,0.2l-0.4,0l-0.2-0.1c0,0,0,0-0.2-0.1   c-0.2-0.1-0.3-0.1-0.3-0.1s-0.2-0.1-0.3,0.1c-0.1,0.2,0,0.8,0,0.8s-0.1,0.1-0.2-0.1c-0.1-0.2-0.2-0.3-0.2-0.3s-0.1-0.1-0.2-0.1   c-0.2,0-0.1,0-0.2,0c-0.1,0-0.1,0-0.2-0.1c-0.1-0.1-0.2-0.1-0.2-0.1s0.3,0,0.3-0.1c-0.1-0.2,0-0.1-0.1-0.2c-0.1-0.1,0-0.2-0.2-0.1   c-0.2,0-0.2,0-0.4,0c-0.2,0-0.1,0-0.3-0.1c-0.2-0.1-0.3-0.1-0.4,0c-0.2,0.1-0.4,0-0.4,0s-0.1,0-0.2-0.1c-0.1-0.1,0-0.3-0.1-0.2   c-0.1,0.1-0.2,0.1-0.3,0.1c-0.1,0.1-0.2,0.1-0.3,0.2c-0.2,0.1-0.2,0-0.3,0.1c-0.1,0.1-0.1,0.2-0.3,0.2c-0.2,0-0.3-0.1-0.3-0.1   l-0.2-0.2c0,0-0.2-0.1-0.3-0.1c-0.1,0-0.2,0-0.2,0s0-0.1-0.3-0.1c-0.3-0.1,0.2,0-0.3-0.1c0.1-0.3,0-0.6,0-0.9   c0.2-0.1,0.4-0.2,0.5-0.4c0.4-0.4,2.8-0.6,2.2-1.3c0.5-0.6-0.6-0.3-0.1-1.1c0.2-0.1,0.4-0.2,0.6-0.4C89.6,9.3,89.9,9,90,8.7   c0.5,0,1-0.2,1.2-0.6c0.2-1.9,3.1-0.2,3.8-1.4c0.3,0,0.5,0,0.7,0c0,0,0.1,0,0.1,0c0.1,0,0.2-0.1,0.2-0.2c0.1-0.1,0.2-0.1,0.4-0.1   c0.3,0,0.3,0,0.3,0c0.1,0,0,0.3-0.2,0.3c-0.2,0-0.4,0-0.4,0s-0.1,0-0.1,0.1c0,0.1-0.1,0.1,0,0.2c0.1,0.2,0.1,0.3,0.1,0.3   c0,0,0,0.1-0.2-0.1C95.7,7.1,95.7,7,95.7,7s0,0.2-0.3,0.1C95.2,7,95.1,7,95.1,7l0.1,0.6c0,0-0.3,0.2-0.1,0.3   c0.2,0.1,0.2-0.1,0.2,0.2c0,0.2-0.1,0.3,0,0.5c0.1,0.1,0.2,0.4,0.2,0.4c0,0,0.4,0.2,0.4,0.2l-0.3,0.2c-0.1-0.1,0-0.2-0.1-0.1   c-0.2,0-0.2,0-0.3,0.2c-0.1,0.2-0.3,0.1-0.2,0.3c0.1,0.1,0.1,0.1,0.2,0.2c0.1,0.1,0,0.1,0.1,0.1c0.1,0,0,0.1,0.2,0   c0.2,0-0.1-0.1,0.2-0.1c0.3,0,0.1-0.2,0.3,0c0.3,0.2,0.2,0.1,0.3,0.2c0.1,0.1,0,0.1,0.1,0.1c0.1-0.1,0.1,0.1,0.1-0.1   c0.1-0.2,0.1-0.1,0.1-0.3c-0.1-0.2-0.1-0.1-0.1-0.2c0-0.1-0.1,0,0-0.2c0.1-0.1,0-0.1,0.1-0.2C96.9,9,96.8,9.2,97,9   c0.2-0.2,0.2-0.1,0.2-0.3c0-0.1,0-0.2,0-0.2C97.1,8.4,97,8.3,97,8.3C97,8.2,96.9,8,96.9,8s0-0.2,0-0.3c0-0.1-0.2-0.1,0-0.1   c0.2,0,0,0,0.2,0c0.2,0,0.1,0,0.3-0.1c0.2-0.1,0.2-0.1,0.3-0.2c0.1-0.1,0-0.1,0.1-0.2C98,7,98,7,98.1,6.9c0.2-0.2,0.2-0.2,0.2-0.2   s0.2-0.5,0.2-0.5c0,0,0.1,0,0.2-0.1c0.1-0.1,0.2-0.1,0.1-0.1c0,0,0-0.1-0.1,0c-0.1,0.1,0,0.2-0.3,0.3c-0.3,0-0.3,0.1-0.3,0   c0-0.1-0.1-0.1,0-0.2c0.1-0.2,0-0.1,0.2-0.2c0.2-0.1,0.1,0,0.2-0.1c0.1-0.1,0-0.1,0.1-0.2c0.2-0.1,0-0.1,0.2-0.2   c0.2-0.1,0.3-0.1,0.3-0.1c0.3,0.1,0.6,0.1,0.9,0.2c-0.1,0-0.1,0-0.2,0.1c-0.1,0.1-0.1,0.1-0.2,0.2c-0.1,0.1-0.1,0.1-0.2,0.1   c-0.1,0.1,0,0-0.1,0.1c0,0.1,0,0-0.1,0.2c-0.1,0.2-0.1,0.1-0.2,0.2C99,6.3,99,6.3,98.9,6.4c-0.1,0.1,0,0-0.2,0.2   c-0.1,0.2-0.3,0.2-0.2,0.4c0.1,0.2,0.2,0.2,0.2,0.2c0,0,0.1,0.1,0.1,0.2c0.1,0.1,0.1,0.2,0.1,0.2c0,0.1,0,0.2-0.1,0.2   c-0.1,0-0.1,0-0.2,0.1c-0.1,0-0.4,0.2-0.5,0.3c-0.1,0,0,0-0.2,0.1c-0.2,0.1-0.3,0.1-0.3,0.2c0,0.1-0.1,0.2,0,0.2   C97.8,9,97.8,9,97.9,9s0,0,0.2,0c0.2,0.1,0.1,0.1,0.3,0.1c0.2,0,0.3-0.1,0.4,0c0.1,0.1,0,0.2,0,0.3c0,0.1,0.2,0.2-0.1,0.1   c-0.3,0-0.2-0.1-0.4,0c-0.2,0-0.4-0.1-0.3,0.1C98,9.9,98,9.9,98.1,9.9c0.1,0.1,0.1,0.1,0.1,0.1c0,0,0.3,0.2,0.3,0.2s0.1,0,0.3,0   c0.2,0,0-0.1,0.2,0c0.2,0,0.1,0,0.4,0.1c0.3,0.1,0.3,0,0.5,0.1c0.1,0.1,0.2,0.2,0.2,0.3c0,0.1,0,0.1,0,0.2c0,0.1,0,0.2,0,0.3   c0,0.1,0,0.2,0,0.2c0,0.1,0,0,0,0.1c0.1,0.2,0.2,0.4,0.2,0.4l0,0.1c0,0,0,0.3,0,0.3c0,0.1-0.1,0.3-0.1,0.3s0.1,0,0.2,0.1   c0.1,0,0.2,0.1,0.3,0.2c0.1,0.1,0.2,0.1,0.3,0.2c0,0.1,0.1,0,0,0.1c0,0.1,0,0,0,0.1c0,0.2,0,0.2,0,0.3c0,0.1,0,0,0,0.2   c0,0.2,0,0.2,0,0.3c0,0.1,0.1,0.2,0,0.2c-0.1,0-0.1,0-0.2,0c-0.1,0-0.1,0-0.1,0c-0.1,0.1-0.1,0-0.1,0.1c0,0.2,0,0.2,0,0.3   c0,0.1,0.1,0.3,0.1,0.3l0.1,0.4c0,0,0.1,0,0.1,0.1c0,0.1,0,0.1,0.1,0.2c0.1,0.1,0.1,0.1,0.1,0.2C100.5,16.9,99.8,17.4,99.1,18z    M119.3,5.8c0.6,0.2,1.2,0.4,1.3,0.3c0.9-1.6,6.1,1.2,7.7,1.2c0.3,0.3,0.6,0.2,0.9,0.3c0.5,0.5-2.2,3-1.4,2.9   c0.3,0.5,4.8-0.2,5.3-0.2c1.5-0.4,2.9,2.1,2.5,3.2c0,0.4,0.2,0.6,0.5,0.9c0,0,0,0.1-0.1,0.1c0,0-0.1,0.1-0.1,0   c0,0-0.1-0.1-0.2-0.2c0-0.1,0-0.2-0.1-0.2c-0.1,0-0.2,0-0.3,0c-0.1,0-0.1,0-0.2,0c-0.2,0-0.2-0.1-0.3,0c-0.1,0.1,0,0.1-0.1,0.2   c-0.1,0.2-0.2,0.1-0.2,0.1s-0.2-0.4-0.2-0.6c0-0.2,0-0.2-0.1-0.3c-0.1,0-0.1-0.1-0.2-0.1c-0.2,0-0.2,0-0.4,0c-0.2,0-0.1,0.1-0.3,0   c-0.1-0.1-0.1-0.1-0.2-0.1c-0.1-0.1-0.1,0-0.2-0.1c0-0.1-0.1-0.3-0.1-0.3s-0.1-0.1-0.2,0c-0.1,0.1-0.2,0.2-0.2,0.2l-0.2,0   c-0.1-0.1-0.2-0.2-0.2-0.2s0.3-0.3-0.1-0.2c-0.4,0.1-0.4,0.1-0.4,0.1s-0.1,0.3-0.2,0.4c0,0.1,0,0.1-0.1,0.2c-0.1,0-0.1,0.1-0.3,0   c-0.2-0.1-0.2-0.1-0.2-0.1s-0.3-0.1-0.4,0c-0.1,0.1-0.1,0-0.2,0.1c-0.1,0.1-0.1,0.2-0.3,0.2c-0.2-0.1-0.3,0-0.3-0.1   c-0.1-0.1,0.1-0.1-0.1-0.1c-0.2-0.1-0.2,0-0.2-0.1c0-0.1-0.2-0.1-0.1-0.2c0.1-0.1-0.1-0.2,0.2-0.1c0.2,0.1,0.3,0.2,0.3,0   c0-0.2,0-0.3,0-0.3c-0.1,0-0.1-0.1-0.1-0.1l-0.2-0.1c0,0-0.3-0.1-0.4-0.1c0,0-0.2-0.1-0.2,0c0,0.1,0,0.2,0,0.2   c0,0.1,0,0.1-0.1,0.1c-0.1,0-0.1,0-0.2,0c0,0,0-0.1-0.1-0.1c-0.1,0,0-0.1-0.2-0.1c-0.2,0-0.3-0.1-0.4-0.1c-0.1,0-0.3,0-0.4,0   c0,0-0.1,0.2-0.2,0.2c-0.1,0-0.1,0.2-0.1-0.1c-0.1-0.2,0-0.2-0.1-0.3c0-0.1-0.2,0-0.1-0.2c0-0.2,0-0.3,0-0.3s-0.7,0.2-0.7,0.3   c0,0.1-0.1,0.4-0.2,0.4c-0.1,0-0.5,0.4-0.2-0.1c0.3-0.6,0.2-0.5,0.3-0.6c0.1-0.1,0,0,0.2-0.1c0.2-0.1,0.2-0.1,0.2-0.1   s0.4-0.1,0.4-0.2c0,0,0,0,0-0.2c0-0.2,0-0.2,0-0.3c0-0.1,0.1-0.1,0-0.2c-0.1-0.1-0.1-0.1-0.1-0.2c-0.1,0,0-0.1-0.2-0.1   c-0.2,0-0.3,0-0.4,0.1c-0.1,0.1-0.2,0.1-0.2,0.1s-0.2,0-0.2-0.1c0-0.1,0,0,0-0.2c0-0.1,0-0.2,0-0.2l-0.1-0.2c0,0-0.2-0.3-0.3-0.1   c-0.1,0.2-0.1,0.1-0.1,0.2c0,0.1,0,0.5-0.1,0.5c-0.1,0-0.1,0-0.2,0c0,0,0,0.3,0.1,0.3c0,0.1,0.2,0.5,0,0.4c-0.2-0.1-0.1,0-0.2-0.1   c-0.1-0.1-0.1-0.2-0.1-0.2l-0.2-0.1c0,0,0-0.1-0.1-0.1c-0.2,0.1-0.1,0-0.3,0.1c-0.1,0-0.2,0-0.2,0s-0.4,0.1-0.5,0.1   c0,0-0.2,0.1-0.3,0.2c-0.1,0.1-0.1,0-0.2,0.1c-0.1,0.1-0.2,0-0.2,0.1c0,0.1-0.1,0-0.1,0.1c0,0.1,0,0.1,0.1,0.2c0,0.1,0.1,0,0,0.1   c-0.1,0.1-0.1,0.1-0.2,0.1c-0.1,0,0.1,0-0.1,0c-0.3,0-0.2,0-0.3,0c-0.1,0.1-0.2,0.1-0.2,0.2c0,0.1,0,0.2,0.1,0.2   c0.1,0.1,0.2,0.5,0.2,0.5s0.1,0.2,0.2,0.3c0,0.1,0,0.1,0,0.2c0,0.1,0,0.2,0,0.2c0,0.1-0.1,0-0.1,0l-0.1-0.2c0,0,0,0,0-0.1   c0-0.1,0-0.2,0-0.2s-0.1-0.1-0.2-0.1c0,0-0.2-0.1-0.2-0.1s-0.1-0.1-0.2,0c-0.1,0.1-0.3,0.3-0.4,0.2c-0.1-0.1-0.1-0.1-0.1-0.2   c0,0-0.3,0.1-0.3,0.2c0,0.1,0.1,0,0.1,0.2c0,0.2,0,0.3,0,0.4c0,0.1-0.1,0.1,0,0.2c0.1,0.1-0.2,0.2,0.2,0.2c0.3,0,0.2-0.1,0.4,0   c0.1,0.1,0.3,0.2,0.3,0.3c0,0.1,0,0,0,0.1c0,0.1,0,0.2,0,0.3c0,0.1,0,0,0.1,0.2c0.1,0.2,0.1,0.1,0.1,0.2c0,0.1,0.1,0.3,0.2,0.4   c0.1,0.1-0.3,0-0.3,0l-0.1-0.1c0,0,0-0.1-0.1-0.1c-0.1,0-0.2,0-0.2,0c-0.1,0-0.1,0-0.1,0c0-0.1,0,0,0-0.2c0.1-0.2,0.1-0.2,0.1-0.3   c0-0.1,0,0,0-0.2c0-0.2,0-0.2,0-0.2c0,0-0.2,0-0.2,0s-0.1,0.1-0.1,0.2c0,0.1,0,0.1-0.1,0.2c0,0.1,0,0-0.1,0.2   c-0.1,0.2-0.1,0.2-0.2,0.2c-0.1,0.1-0.3,0.1-0.3,0c-0.1,0-0.1-0.1-0.1-0.1s0-0.1,0.1-0.1c0.1,0,0,0.1,0.1,0   c0.1-0.1,0.1-0.1,0.1-0.1c0-0.1,0.1-0.2,0.1-0.3c0-0.1,0.1-0.2,0-0.3c0-0.1-0.1-0.1-0.1-0.2c0-0.1,0,0,0-0.3c0-0.2,0-0.1,0-0.3   c0-0.2,0-0.2,0-0.3c0-0.1-0.1,0-0.1-0.2c0-0.1,0-0.1,0.1-0.2c0-0.1,0.1-0.3,0.1-0.3c0-0.1,0-0.1-0.1-0.1c-0.1,0,0,0-0.2,0   c-0.2,0-0.2,0-0.2,0c-0.1,0.1-0.1,0.1-0.1,0.2c0,0.1,0.1,0.1,0,0.2c-0.1,0.1,0,0-0.1,0.1c-0.1,0.1-0.1,0-0.1,0.2c0,0.1,0,0,0,0.2   c0,0.2,0,0.3,0,0.4c0,0.1,0.1,0.4,0.1,0.4s0.1,0,0.1,0.1c0,0.1,0.1,0.1,0,0.2c0,0.1,0,0.2-0.1,0.1c-0.1,0-0.2-0.1-0.2-0.1   s0-0.1-0.1-0.1c0,0-0.1-0.1-0.2-0.1c0,0-0.1-0.1-0.1-0.1c-0.1,0-0.2-0.1-0.2-0.1s0-0.1-0.1,0c-0.1,0.1,0,0-0.1,0.1   c-0.1,0.1,0,0.1-0.1,0.2c0,0.1,0,0-0.1,0.1c0,0.1,0,0.1-0.1,0.1c-0.1,0-0.1-0.1-0.2,0c-0.1,0-0.1,0-0.2,0.1c0,0-0.1,0-0.2,0.1   c-0.1,0.1-0.1,0-0.2,0.1c-0.1,0.1-0.1,0.1-0.2,0.1c-0.1,0-0.2,0.1-0.3,0.2c-0.1,0-0.3,0-0.2-0.1c0.1-0.1,0,0,0.1-0.2   c0.1-0.1,0.1-0.2,0.1-0.2s0.1-0.2-0.1-0.1c-0.2,0-0.3,0.1-0.3,0.1c0,0.1-0.1,0-0.1,0.1c-0.1,0.1-0.1,0.2-0.2,0.3   c0,0.1,0,0.1-0.1,0.1c-0.1,0-0.4,0-0.4-0.1c0-0.1,0-0.4,0-0.4s-0.2-0.1-0.2,0c0,0.1,0,0.2,0,0.3c0,0.1,0,0,0,0.1c0,0.1,0,0,0,0.1   c0,0.1,0,0.1,0,0.2c0,0.1,0,0.2,0,0.2l-0.3,0c-0.1,0.1-0.2,0.2-0.2,0.3c0,0.1,0,0,0,0.1c0,0.1-0.1,0.2-0.2,0.2   c-0.1-0.1-0.1-0.1-0.1-0.1l-0.1-0.1c0,0-0.1-0.2-0.1,0c0,0.2-0.1,0.1-0.1,0.2c0,0.1,0,0.1-0.1,0.1c-0.1,0-0.2-0.1-0.2-0.2   c0,0,0-0.1,0-0.1c0-0.1,0.1-0.1,0-0.2c-0.1-0.1-0.1-0.1-0.2-0.2c-0.1-0.1-0.1-0.1-0.1-0.2c0-0.1,0.1-0.1,0.2-0.1   c0.1,0,0.1,0.2,0.3,0.2c0.2,0,0.1,0.1,0.3,0c0.2,0,0.1,0,0.3-0.1c0.2,0,0.2-0.1,0.2-0.2c0-0.1,0,0-0.1-0.2   c-0.1-0.2-0.1-0.2-0.2-0.3c-0.1-0.1-0.2-0.2-0.3-0.3c-0.1-0.1-0.2-0.2-0.3-0.1c-0.1,0-0.1,0-0.2,0c-0.1,0-0.1,0-0.2,0   c-0.1-0.1-0.1-0.1-0.1-0.1c-0.1,0-0.1-0.1-0.2-0.1c-0.1,0-0.2-0.1-0.2-0.1l0.1-0.2c0,0,0-0.1-0.1-0.1c-0.2,0-0.2,0-0.3,0   c-0.1,0-0.2,0.1-0.3,0.1c-0.1,0-0.1,0-0.2,0c-0.2,0-0.2,0-0.3,0.1c-0.1,0.1,0,0-0.2,0.1c-0.1,0.1,0.2-0.1-0.2,0.2   c-0.4,0.2-0.4,0.2-0.4,0.3c0,0.1-0.1,0.1-0.2,0.2c0,0.1-0.2,0.4-0.2,0.4s-0.1,0-0.2,0.1c-0.1,0.1-0.2,0.1-0.2,0.2   c0,0.1,0,0.4,0,0.4c0,0.1-0.1,0.4-0.2,0.5c-0.1,0-0.1,0.1-0.2,0.2c-0.1,0.1-0.2,0-0.3,0.1c-0.1,0.2,0,0.1-0.2,0.2   C110,16.8,110,17,110,17s0.1,0.4,0,0.4c0,0.1-0.1,0.2-0.1,0.2c0,0.1,0,0.1,0.1,0.2c0.1,0.1,0,0.1,0.1,0.1c0.1,0,0,0.1,0.2,0   c0.2-0.2,0.1-0.1,0.2-0.2c0.1-0.1-0.1-0.1,0.2-0.1c0.3,0,0.3,0,0.4,0.1c0.1,0,0.2-0.1,0.1,0c-0.1,0.1-0.1,0.1-0.2,0.2   c-0.1,0.1-0.1-0.1-0.1,0.2c0,0.2,0,0.3,0.1,0.4c0.1,0.1,0,0.1,0.1,0.2c0.1,0,0.2,0,0.3-0.1c0.1-0.1,0.1,0,0.2-0.2   c0.1-0.1,0.1-0.1,0.1-0.2c0-0.2,0-0.2,0-0.2c0-0.1,0.3-0.1,0.3-0.4c-0.1-0.2,0-0.1-0.1-0.2c-0.1-0.1-0.1-0.1-0.1-0.3   c0-0.2,0-0.4,0-0.5c0,0,0.2-0.1,0.3-0.2c0.1-0.1,0,0,0.1-0.2c0.1-0.1,0.1-0.1,0.1-0.2c0-0.1,0-0.1,0.1-0.2c0-0.1,0-0.1,0-0.2   c0.1-0.1,0-0.1,0.1-0.1c0.1,0,0,0,0.1,0c0.1,0,0.1,0,0.2,0.1c0.1,0.1,0.1,0,0.1,0.1s0,0.1,0,0.2c0,0.1,0,0-0.1,0.2   c-0.1,0.1-0.2,0.2-0.2,0.2s-0.2,0.2-0.2,0.2c0,0-0.1,0.1-0.1,0.2c0,0.1-0.1,0.2,0,0.3c0,0.1-0.1,0.1,0,0.2   c0.1,0.1,0.1,0.1,0.2,0.2c0.1,0.1,0.3,0.1,0.4,0.1c0.2,0,0.1,0,0.2-0.1c0.2-0.1,0.2-0.1,0.3,0c0.1,0.1,0.1,0,0.1,0.1   c0,0-0.1,0.2-0.1,0.2s0,0-0.2,0c-0.2,0-0.3,0-0.4,0c-0.1,0-0.1,0-0.2,0.1c0,0.1,0,0.2,0,0.3c0,0.1,0,0-0.1,0.2   c0,0.2-0.2,0.2-0.3,0.1c0,0-0.1-0.1-0.1-0.1s-0.1,0.1-0.1,0.2c-0.1,0.1-0.1,0.1-0.1,0.2c0,0.1,0,0.3,0,0.3l-0.1,0.1   c0,0-0.1,0-0.2,0c-0.1,0-0.2,0-0.3,0.1c-0.1,0-0.6,0.1-0.6,0.1s-0.1-0.1-0.2-0.1c-0.1,0-0.2-0.1-0.3-0.1c-0.1,0-0.2-0.2-0.2-0.2   c0-0.1,0-0.1,0-0.1s0,0.2,0,0.3c0,0.1,0,0.1-0.1,0.2c0,0.1-0.1,0.1-0.1,0.1s0.2-0.2-0.2,0.1c-0.4,0.3-0.4,0.3-0.4,0.3   c0,0.1,0,0-0.1,0.1c-0.1,0.1-0.2,0.2-0.2,0.2l-0.3,0.2l-0.1,0.1c0,0-0.1-0.1-0.2,0c0,0.1-0.1,0.2-0.1,0.2s-0.1,0.1-0.1,0.1   c-0.1,0-0.1,0-0.2,0c-0.1,0-0.1,0.3,0,0.4c0.2,0.1,0-0.1,0.2,0.1c0.2,0.1,0.2,0.1,0.2,0.2c0,0,0,0,0,0.1c0,0.1,0.1,0,0,0.2   c-0.1,0.2,0,0.2-0.2,0.2c-0.1,0-0.2,0-0.3,0c-0.1,0-0.3,0-0.3,0s-0.1,0-0.1,0c-0.1,0-0.2,0-0.2,0.1c0,0.1,0,0-0.1,0.1   c0,0.1,0,0,0,0.2c0,0.1,0,0.1,0,0.2c0,0.1,0,0.4,0,0.4l0.1,0.3c0,0,0,0,0.1,0.1c0.2,0.1,0.4,0.2,0.6,0.1c0.2-0.1,0.2-0.1,0.3-0.2   c0.1-0.1,0.1-0.1,0.3-0.2c0.1-0.2,0-0.1,0.2-0.3c0.1-0.2,0.1-0.3,0.2-0.4c0.1-0.1,0.1,0,0.2-0.2c0.2-0.1,0.2-0.2,0.2-0.2   c0.1,0-0.1,0,0.2,0c0.3-0.1,0.3-0.1,0.4-0.1c0.1,0,0.1,0,0.2,0.1c0.1,0.1,0,0,0.2,0.2c0.2,0.2,0.3,0.3,0.4,0.3   c0.1,0.1,0.1,0,0.1,0.1c0.1,0.1,0,0,0.1,0.1c0.1,0.1,0,0,0.1,0.1c0.1,0.1,0.2,0,0.1,0.2c-0.1,0.1-0.1,0.1-0.1,0.1   c0.1,0,0,0.1,0.1,0.1c0.1,0,0,0.3,0.1,0c0.1-0.4,0.1-0.4,0.1-0.4s0-0.1-0.1-0.2c0,0,0,0-0.1-0.1c-0.2-0.1-0.1-0.1-0.3-0.2   c-0.2-0.2-0.1,0-0.3-0.3c-0.2-0.3-0.3-0.2-0.2-0.3c0.1-0.1,0-0.1,0.1-0.1c0,0,0-0.1,0.2,0c0.2,0.1,0.2,0.2,0.4,0.3   c0.1,0.1,0.2,0.1,0.3,0.2c0.1,0.1,0.1,0,0.2,0.1c0.1,0.1,0.1,0,0.1,0.2c0.1,0.2,0,0.1,0.1,0.2c0,0.1,0,0.1,0,0.2c0,0.1,0,0,0,0.1   c0.1,0.1,0.1,0.3,0.2,0.3c0.1,0,0.2,0,0.2-0.2c0-0.2-0.1-0.1,0-0.3c0-0.1,0-0.2,0-0.2c0.1,0,0.2-0.1,0.2-0.1s0.3,0,0.3,0.1   c0,0.1,0,0,0,0.2c0,0.2,0,0.1,0,0.2c0.1,0.1-0.1,0,0.1,0.2c0.2,0.2,0.3,0.1,0.4,0.2c0.1,0-0.2-0.1,0.2,0c0.3,0.1,0.3,0.1,0.4,0.1   c0.1,0,0.1-0.1,0.2-0.1c0.1,0,0.1,0,0.1,0.1c0,0.1,0.1,0.1,0,0.1c0,0.1-0.1,0.1-0.1,0.2c0,0.1,0,0.1-0.1,0.2c0,0.1,0,0.2-0.1,0.3   c-0.1,0.1-0.1,0.2-0.2,0.2c-0.1,0-0.2,0-0.3,0c-0.1,0-0.1,0-0.2,0c-0.1,0-0.1,0-0.3,0c-0.1,0-0.3-0.1-0.4-0.1c-0.1,0-0.1,0-0.2,0   c-0.1,0-0.3,0-0.3,0s-0.1,0.1-0.2,0.1c0,0.1,0,0.1-0.1,0.1c-0.1,0-0.1,0.1-0.3,0c-0.1-0.1-0.1-0.1-0.3-0.2c-0.1,0-0.2-0.1-0.3-0.1   c-0.1,0-0.2,0-0.3-0.1c-0.1-0.1-0.2,0-0.3-0.1c-0.1-0.1-0.1,0-0.1-0.1c0-0.1,0,0,0-0.2c0-0.2,0-0.2,0-0.2s0-0.2-0.2-0.2   c-0.2,0-0.1,0-0.3,0c-0.2,0-0.4,0-0.5,0c-0.1,0-0.3,0.1-0.4,0.1c-0.1,0-0.5,0.2-0.5,0.2l-0.2,0c0,0-0.2,0-0.3,0   c-0.1,0-0.1-0.1-0.2,0c-0.1,0.1-0.2,0.2-0.2,0.2s0,0-0.1,0.1c-0.1,0.1-0.2,0.1-0.2,0.2c0,0.1-0.1,0.1-0.1,0.2c0,0.1,0,0.1,0,0.1   c0,0,0,0-0.1,0.1c-0.1,0.2-0.1,0.2-0.2,0.3c-0.1,0.1-0.1,0.1-0.2,0.1c-0.1,0.1-0.1,0-0.2,0.1c-0.1,0.1-0.2,0.4-0.2,0.4l-0.2,0.3   c0,0-0.1,0-0.1,0.1c0,0.1,0,0.2,0.1,0.3c0,0,0,0,0,0.1c0,0.2,0,0.4,0,0.4s-0.1,0-0.1,0.1c0,0.1,0,0.1,0,0.2c0,0.2,0,0.1,0,0.2   c0,0.1,0,0.1,0.1,0.2c0,0.1,0,0.1,0.1,0.2c0.1,0.1,0,0,0.1,0.1c0.1,0.1,0.1,0.1,0.2,0.2c0.1,0.1,0,0.1,0.1,0.2   c0.1,0.1,0,0.1,0.1,0.2c0.1,0.1,0.1,0.1,0.2,0.2c0.1,0.1,0.1,0.1,0.2,0.2c0.1,0,0,0.1,0.2,0.1c0.2-0.1,0.1-0.1,0.2-0.1   c0.1,0,0.1,0,0.2,0c0.1,0,0.1,0,0.2,0c0.1,0,0.1,0.1,0.2,0.1c0.1,0,0,0,0.2,0c0.2,0,0,0.1,0.3-0.1c0.3-0.1,0.2-0.1,0.3-0.1   c0.1,0,0.1,0,0.2,0c0.1,0,0.1-0.2,0.2,0c0.1,0.2,0.2,0.3,0.2,0.3l0.2,0l0.3,0.1c0,0,0,0,0,0.2c0,0.2,0.1,0.2,0,0.2   c-0.1,0.1-0.1,0.1-0.1,0.2c0,0.1,0.1,0.2,0.1,0.2l0.1,0.2c0.1,0.1,0,0.1,0.2,0.3c0.2,0.2,0.3,0.1,0.3,0.4c0,0.3,0,0.2,0,0.4   c0,0.2,0,0,0,0.2c0,0.2,0,0.1-0.1,0.4c-0.1,0.3-0.1,0.2-0.1,0.4c0,0.2,0,0,0,0.2c0,0.2,0.2,0.5,0.2,0.7c0,0.2,0.2,0.4,0.2,0.6   c0.1,0.2,0.1,0.2,0.2,0.4c0.1,0.2,0.1,0.1,0.1,0.3c0,0.1,0.1,0.1,0.1,0.1c0,0.1,0,0,0,0.1c0,0.1,0,0.1,0,0.2c0,0.1,0,0.1,0,0.2   c0.1,0.1,0,0,0.1,0.2c0.1,0.1,0.1,0.1,0.2,0.1c0.1,0,0.1,0,0.1,0c0.1,0-0.1,0,0.2,0c0.2,0.1,0.2,0.1,0.3,0.1c0.1,0,0.2,0,0.3,0   c0.1,0,0,0,0.1,0c0.1,0,0.2,0,0.3-0.1c0.1-0.1,0.1-0.1,0.2-0.1c0.1-0.1,0.1,0,0.2-0.1c0.2-0.1,0.1-0.1,0.2-0.3   c0.1-0.1,0.1-0.1,0.1-0.2c0-0.1,0-0.1,0-0.2c0-0.1,0,0,0-0.1c0-0.2-0.1-0.2,0-0.3c0.1-0.1,0-0.1,0.1-0.2c0.1-0.1,0.1-0.1,0.2-0.1   c0.1,0,0.1,0,0.2-0.1c0-0.1,0-0.1,0-0.3c0-0.2,0.1-0.2,0-0.3c-0.1-0.1-0.1-0.1-0.1-0.2c0-0.1,0-0.1,0.1-0.2   c0.1-0.1,0.1-0.1,0.2-0.2c0.1-0.1,0.1-0.1,0.2-0.1c0.2-0.1,0.1,0,0.2-0.1c0.1-0.1,0.1-0.3,0.1-0.3l0-0.4c0,0,0.1,0,0-0.1   c-0.1-0.1-0.1-0.1-0.1-0.1c0-0.1,0,0,0-0.1c0-0.1,0-0.1,0-0.2c0-0.1,0-0.1,0-0.2c0-0.1,0-0.1,0-0.2c0-0.1,0-0.1,0.1-0.2   c0.1-0.1,0-0.1,0.1-0.2c0.1-0.1,0.1-0.1,0.2-0.2c0.1-0.1,0-0.1,0.2-0.2c0.2-0.1,0.3-0.2,0.3-0.2l0.3-0.4c0,0,0,0,0.1-0.1   c0.1-0.1,0.1,0,0.2-0.2c0.1-0.1,0.1,0,0.2-0.2c0.1-0.2,0-0.2,0.1-0.3c0.1-0.1,0.1,0,0.1-0.2c0-0.2,0-0.1,0-0.2   c0-0.1,0.2-0.2,0-0.2c-0.2,0-0.2,0-0.3,0.1c-0.1,0.1-0.1,0.1-0.2,0.1c-0.1,0-0.1,0-0.3,0c-0.1,0-0.2,0-0.3-0.2   c-0.1-0.1-0.1-0.1-0.2-0.2c-0.1-0.1-0.1-0.1-0.2-0.2c-0.1-0.1-0.1,0-0.2-0.2c-0.2-0.3-0.1-0.2-0.2-0.3c-0.1-0.2-0.1-0.2-0.2-0.3   c0-0.2,0-0.2-0.1-0.4c-0.1-0.2-0.1-0.1-0.2-0.3c-0.1-0.3-0.1-0.2-0.1-0.3c-0.1-0.1-0.1-0.2-0.2-0.3c0-0.1-0.2-0.2,0-0.2   c0.1,0,0.2,0,0.3,0.1c0.1,0.1,0,0,0.1,0.1c0.1,0.2,0.1,0.2,0.2,0.4c0.1,0.2,0,0,0.1,0.2c0.2,0.2,0.2,0.2,0.3,0.3   c0.1,0.1,0.1,0.1,0.1,0.2c0,0.1,0,0.1,0,0.2c0,0.1,0,0,0.1,0.2c0.1,0.1,0,0.1,0.1,0.1c0,0.1,0,0,0.1,0.1c0.1,0.1,0,0,0.1,0.2   c0.1,0.2,0.1,0.2,0.2,0.4c0.1,0.1,0.3,0.1,0.4,0c0.1,0,0.1-0.1,0.3-0.1c0.2-0.1,0.2-0.1,0.4-0.1c0.2,0,0,0,0.3-0.1   c0.2-0.1,0.2-0.1,0.3-0.2c0.1-0.1,0.2-0.1,0.3-0.1c0.1-0.1,0,0,0.2-0.1c0.2-0.2,0.1-0.2,0.2-0.3c0.1-0.1,0.2-0.3,0.2-0.3   c0,0,0-0.1,0-0.1s0-0.1-0.1-0.2c-0.1,0-0.1-0.1-0.1-0.1c0,0-0.1-0.1-0.1-0.1s0-0.1-0.2,0c-0.2,0.1-0.5,0.1-0.6,0.1   c0-0.1,0-0.2-0.2-0.3c-0.2-0.1-0.4-0.3-0.4-0.3s-0.1,0-0.1-0.1c0-0.1-0.1-0.1,0-0.2c0-0.1,0.1-0.2,0.1-0.2c0,0,0.2,0,0.2,0   s0,0.1,0.1,0.2c0.1,0.1,0.1,0.2,0.2,0.2c0.1,0.1,0.2,0.1,0.2,0.1s0.1,0,0.2,0c0.1,0,0.1,0,0.1,0c0.1,0,0-0.1,0.1,0   c0.1,0.1,0.2,0,0.2,0.1c0.1,0.1,0.1,0.1,0.1,0.1c0,0,0.1,0.1,0.2,0.1c0.1,0,0,0,0.2,0c0.1,0-0.1,0,0.2,0c0.3,0,0.1,0,0.3,0   c0.3,0,0.2-0.1,0.3-0.1c0.1,0.1,0,0,0.2,0.1c0.1,0.1,0.1,0.1,0.2,0.2c0.1,0.1,0.1,0,0.1,0.1c0,0.1,0,0,0,0.2   c0.1,0.1,0.1,0.2,0.1,0.2l0.2-0.1c0,0,0.2,0.1,0.2,0.2c0,0.1,0,0,0,0.2c0,0.1,0,0.4,0,0.5c0,0.1-0.1-0.1,0,0.1   c0.1,0.2,0.1,0.1,0.1,0.2c0.1,0.1,0.1,0,0.1,0.1c0,0.1,0,0,0,0.1c0.1,0.1,0,0,0.1,0.2c0.1,0.1,0,0.1,0.1,0.2c0,0.1,0,0,0,0.1   c0,0.1-0.1,0.2,0.1,0.2c0.2,0,0.1,0,0.3-0.1c0.1-0.1,0.2-0.1,0.2-0.2c0-0.1,0-0.1,0.1-0.2c0-0.1,0-0.1,0-0.2c0-0.1,0-0.1,0-0.2   c0-0.1,0-0.1,0.1-0.1c0.1-0.1,0,0,0.1-0.1c0.1-0.1,0.1-0.1,0.2-0.1c0,0,0,0,0.1-0.1c0.1-0.1,0.1-0.1,0.3-0.2   c0.2-0.1,0.2-0.1,0.2-0.2c0.1-0.1,0-0.1,0.1-0.2c0.1,0,0.1-0.1,0.2-0.1c0.1,0,0.2-0.1,0.2-0.1c0.1,0,0.1-0.2,0.2,0   c0.1,0.1,0,0.1,0.1,0.3c0.1,0.1,0.1,0.2,0.2,0.2c0,0.1,0,0,0.1,0.1s0.1,0.2,0.1,0.2s0,0.1,0,0.2c0,0.1,0.1,0.2,0.1,0.2   c0.1,0,0.2,0,0.2,0l0.1-0.1c0,0,0.1,0,0.1,0.1c0,0.1,0.1,0.2,0.1,0.2s0,0.1,0,0.2c0,0.1,0,0,0,0.1c0,0.1,0,0,0,0.1   c0,0.1,0-0.1,0,0.1c0,0.2,0,0.2,0,0.4c0,0.2,0.1,0.3,0.1,0.3l0.2,0.2c0,0,0,0,0.1,0.1c0.1,0.1,0,0,0.1,0.1c0,0.1,0,0.1,0.1,0.1   c0,0.1,0,0,0.1,0.1c0.1,0.1,0,0,0.1,0.1c0.1,0.1-0.1,0.1,0.1,0.1c0.2,0,0.3,0,0.2-0.1c-0.1-0.1,0-0.1-0.1-0.2c0-0.1,0,0-0.1-0.2   c0-0.2,0-0.3,0-0.3s0.1,0,0-0.1c-0.1-0.1-0.1-0.1-0.2-0.2c-0.1-0.1-0.1,0-0.1-0.1c0-0.1,0,0-0.1-0.1c-0.1-0.2-0.2-0.1-0.1-0.2   c0-0.1,0-0.1,0-0.2c0.1-0.1,0.1-0.2,0.1-0.2c0-0.1,0-0.1,0-0.1s0.2,0.1,0.3,0.2c0,0.1-0.1,0,0.1,0.2c0.2,0.2,0.1,0.2,0.2,0.3   c0.1,0.1,0-0.1,0.1,0.1c0.2,0.2,0.3,0.1,0.3,0c0-0.1,0-0.2,0.1-0.2c0.1,0,0.1,0,0.2-0.1c0.1-0.1,0.1-0.1,0.1-0.2   c0-0.1,0-0.1,0-0.2c0-0.1,0-0.1-0.1-0.2c0-0.1-0.1-0.1-0.1-0.1l-0.2-0.2l-0.1-0.1c0,0,0-0.1,0-0.2c0-0.1,0-0.1,0-0.1   c0-0.1,0,0,0.1-0.1c0.1-0.1,0-0.1,0.1-0.2c0.2,0,0-0.1,0.2,0c0.2,0,0.1,0,0.2,0c0.2,0,0.3-0.2,0.4-0.2c0.1,0-0.1,0,0.1,0   c0.2,0,0.2,0,0.3-0.1c0.1-0.1,0,0,0.2-0.1c0.2-0.1,0.2,0,0.3-0.1c0.1-0.1,0.1-0.1,0.2-0.2c0.1-0.1,0-0.1,0.1-0.2   c0.1-0.2,0-0.1,0.1-0.2c0.1-0.1,0-0.1,0.1-0.2c0-0.1,0-0.3,0-0.3s-0.1-0.2-0.1-0.3c0,0-0.1,0-0.1-0.2c0-0.1,0-0.1,0-0.2   c0-0.1-0.1,0,0-0.2c0.1-0.1,0.1-0.1,0.2-0.1c0.1-0.1,0.1,0,0.1-0.1c0.1-0.1,0.1-0.2,0.1-0.2l-0.3,0c0,0-0.1,0-0.2,0   c-0.1,0-0.2,0-0.2,0l-0.1-0.1c0,0-0.1-0.1,0.1-0.1c0.1-0.1,0.1-0.1,0.1-0.1s0,0,0.1,0c0.1-0.1,0,0,0.2-0.1c0.1-0.1,0-0.1,0.1-0.1   c0.1,0,0.2-0.1,0.2,0c0,0.1,0,0.2,0,0.2l0.3,0l0.1,0c-0.1,0.2-0.1,0.2-0.1,0.2c0,0.1,0,0,0.1,0.1c0.1,0,0-0.1,0.1,0   c0.1,0.1,0.1,0,0.1,0.1c0,0.1,0,0,0,0.1c0,0.1-0.1,0.1,0,0.2c0.1,0.1,0,0.1,0.1,0.1c0,0,0,0,0.1,0c0.1,0,0.2,0,0.2-0.2   c0-0.1,0-0.2,0-0.3c0-0.1,0-0.1-0.1-0.2c0-0.1-0.1,0-0.1-0.1c0-0.1,0-0.1,0-0.2c0.1-0.1,0,0.1,0.1-0.1c0.1-0.2,0.1-0.2,0.2-0.3   c0.1-0.1,0.1-0.2,0.1-0.3c0.1,0,0-0.1,0.1-0.1c0.1,0,0,0,0.2,0c0.2,0,0.2,0,0.3,0c0.1,0,0,0,0.1-0.1c0.1-0.1,0-0.1,0.1-0.2   c0.1-0.1,0.1-0.1,0.2-0.2c0.1,0,0.2-0.1,0.2-0.1c0,0,0.1-0.1,0.1-0.1s0.1-0.2,0.1-0.2c0,0,0.1-0.1,0.1-0.1c0-0.1,0.1-0.2,0.1-0.3   c0,0,0,0,0-0.1c0-0.1,0-0.1,0-0.2c0-0.1,0-0.2,0-0.2c0,0,0-0.3,0-0.4c0,0,0,0,0-0.1c0-0.1-0.1-0.1-0.1-0.1l0,0c0,0-0.1,0-0.1,0   c-0.1,0-0.1,0-0.1,0.1c0,0,0,0.1-0.1,0c-0.1,0-0.1,0-0.1-0.1c0-0.1-0.1-0.1-0.1-0.1c0,0-0.1-0.1-0.1-0.1s-0.1,0-0.1-0.1   c-0.1,0-0.1,0-0.1-0.1c0-0.1-0.1-0.1,0-0.1c0.2,0,0.2,0,0.2,0c0,0,0,0,0.1-0.1c0.1-0.1,0.2-0.1,0.2-0.1c0,0,0.1-0.1,0.1-0.1   l0.4-0.5c0,0,0,0,0.1-0.1c0.1-0.1,0.1-0.1,0.2-0.1c0.1,0-0.1,0,0.1,0c0.2,0,0.2,0,0.3,0c0.1,0,0.1,0,0.1,0c0.1,0,0.1-0.1,0.2-0.1   c0.1,0,0.1,0,0.2,0c0.1,0,0.2,0,0.2,0l0.3,0.2c0,0,0,0,0.1,0c0.1,0,0,0,0.1,0c0.1,0,0.1,0,0.2-0.1c0.1-0.1,0.1,0,0.1-0.1   c0-0.1,0-0.1,0.1-0.2c0.1-0.1,0.1-0.1,0.1-0.1c0.1,0,0-0.1,0.1-0.1c0.1-0.1,0.1,0,0.2-0.1c0.1-0.1,0.1-0.1,0.1-0.1   c0,0,0-0.1,0.1,0c0.1,0.1,0,0.2,0,0.3c0,0-0.1,0.2,0.1,0.1c0.1-0.1,0.2-0.1,0.2-0.2c0.1-0.1,0-0.2,0.1-0.2c0.1,0,0.1,0,0.1,0.1   c0,0.1-0.1,0.4-0.2,0.4c0,0-0.1,0.1-0.2,0.2c-0.1,0.1-0.1,0.2-0.3,0.3c-0.1,0.1-0.2,0.1-0.3,0.2c-0.1,0.1-0.1,0-0.2,0.2   c-0.1,0.2-0.2,0.2-0.2,0.3c0,0.1,0,0.4,0,0.4s0.1,0.2,0.1,0.3c0,0,0,0.2,0,0.2c0,0.1,0,0,0,0.1c0,0.1,0,0.1,0,0.1c0,0,0.1,0,0.2,0   c0,0,0,0,0.1-0.1c0.1-0.1,0-0.1,0.1-0.2c0.1-0.1,0-0.1,0.1-0.2c0.1-0.1,0-0.1,0.1-0.1c0.1-0.1,0.1,0,0.2-0.2   c0.1-0.2,0.1-0.2,0.1-0.2c0-0.1,0-0.1,0-0.2c0-0.1,0-0.1,0-0.2c0-0.1,0-0.2,0-0.3c0,0,0.1-0.4,0.1-0.4s0,0,0.1-0.1   c0.1-0.1,0-0.1,0.2-0.2c0.1-0.1,0,0,0.2-0.1c0.1-0.1,0-0.1,0.2-0.1c0.2,0,0.1,0,0.2,0c0.1,0,0.1,0,0.1,0c0,0,0.5-0.2,0.5-0.2   s-0.1-0.1,0.1-0.1c0.2,0,0.2,0,0.3-0.1c0.1-0.1,0-0.1,0.1-0.1c0,0,0,0,0,0c0.2,1.1,0.4,2.1,1.5,2.5c0,0.2,0,0.5,0.1,0.7   c-3.1,5.8,0.7-0.4-0.1,1.7l0,0c-0.4,0.5-0.8,1.5-0.3,2c0.1,0.1-4.6-3.1-2.5,3.2c-0.5,0.5-2.2,1.2-1.5,1.8c-0.1,0.2,3.5-1,3.5-0.8   c-0.2,0.4-0.5,0.6-0.5,1.1c-0.4,0.3-0.9,0.7-0.7,1.3c-0.6,0.3-1.3,1-0.6,1.6c-0.2,0.2-0.2,0.6-0.1,0.9c-0.5,0.1-1.2,0.3-1.2,1   c-0.4,0.1-0.8,0.2-1,0.6c0,0,0-0.1,0-0.1c0-0.2,0-0.1,0-0.3c-0.1-0.3-0.1-0.4-0.1-0.4l-0.3-0.3l-0.2-0.2c0,0-0.2-0.2-0.3-0.3   c-0.1-0.1-0.2-0.1-0.3-0.3c0-0.2-0.1-0.2-0.1-0.4c0-0.1-0.1-0.3-0.1-0.3s-0.1-0.1-0.1-0.2c-0.1-0.1-0.3-0.1-0.3-0.1l0,0.3   c-0.1,0.3-0.1,0.5-0.1,0.5l-0.2,0c-0.1,0-0.2,0-0.3-0.1c-0.2-0.1-0.3-0.1-0.3-0.1s0.1,0,0.1-0.2c0-0.2,0.1-0.2,0-0.3   c-0.1-0.1-0.1-0.2-0.3-0.1c-0.2,0.1-0.2,0-0.4,0.1c-0.1,0.1-0.1,0-0.2,0.1c-0.2,0.1-0.2-0.1-0.3,0.1c0,0.2,0,0.2,0,0.2h-0.3H129   c0,0,0-0.1-0.2,0.1c-0.2,0.2-0.2,0.1-0.2,0.3c0,0.1,0,0.2-0.1,0.2c-0.1,0.1-0.2,0.1-0.2,0.1l-0.6,0.3c0,0-0.3,0-0.4,0.1   c-0.1,0.1-0.3,0.1-0.3,0.2c0,0.1,0,0.1,0.1,0.3c0,0.2,0,0,0,0.2c0,0.2,0,0.2,0,0.4c0,0.1,0.1,0.1,0.1,0.3s-0.1,0.2,0,0.3   c0.1,0.1,0.1,0.1,0.1,0.2c0.1,0.1-0.1,0.1,0.1,0.2c0.2,0.1,0,0.1,0.3,0.1c0.3,0,0.5,0,0.6,0c0.1,0,0.1,0,0.4-0.1   c0.2-0.1,0.1-0.2,0.3-0.2c0.2,0,0.1-0.1,0.3-0.1c0.2,0,0.2-0.2,0.4-0.1c0.3,0.1,0.2,0,0.4,0.1c0.2,0.1,0.2,0,0.3,0.1   c0.1,0.2,0-0.1,0.2,0.2c0.1,0.3,0.1,0.3,0.3,0.3c0.2,0,0.2-0.1,0.2,0c0.1,0.1,0,0,0.1,0.2c0.1,0.1,0.1,0.1,0.1,0.1   c-0.7,0.5-2.1,1.9-3,2.2c-0.5,0.2-1.7,0.6-2.3,1c-0.7,0-1.3-0.1-1.9,0.3c-0.6-0.1-0.7-0.2-1.3,0c0,0,0,0-0.1,0l-0.4,0.4l-0.8,1.2   l-0.7,0.9l-1,1.2l-1.3,1.5l-0.6,1l-0.7,0.9c-0.5,0.7-0.8,1.4-1.1,2.2l-0.2,1.5L116,52l0,2.8l0,2.8l0,2.3v1.1l-0.1,1.2l-0.1,1.4   c-0.1,0.6-0.2,1.2-0.4,1.8l-0.4,0.8l-0.2,0.8l-0.1,1.1l0,0.8c0,0.6-0.1,0.9-0.3,1.5l-0.3,0.6l-0.1,0.6l0.2,0.4   c0.8,0.8,0.6,2.3-0.9,1.7l-0.6-0.4l-0.6,0.4c-1.4,0.6-1.7-0.9-0.9-1.7l0.2-0.4l-0.1-0.6l-0.3-0.6c-0.2-0.6-0.3-0.9-0.3-1.5l0-0.8   l-0.1-1.1l-0.2-0.8l-0.4-0.8c-0.2-0.6-0.3-1.2-0.4-1.8l-0.1-1.4l-0.1-1.2V60l0-2.3l0-2.8l0-2.8l-0.1-1.6l-0.2-1.5   c-0.3-0.9-0.6-1.5-1.1-2.2l-0.7-0.9l-0.6-1l-1.3-1.5l-1-1.2l-0.7-0.9l-0.8-1.2l-0.5-0.5c-0.2,0-0.5,0.2-0.8,0.2   c-0.6,0-1.5-0.1-2,0.5c-0.3-0.2-0.7-0.2-1-0.1c-0.1-0.2-0.3-0.4-0.5-0.6C98,39.4,98,39.3,98,39.3l0-0.1c0-0.1-0.1-0.2,0-0.3   c0.1-0.1,0-0.2,0.1-0.2c0.1-0.1,0.1,0,0.2-0.2c0.1-0.2,0.4,0,0.1-0.3c-0.2-0.3-0.3-0.3-0.3-0.3l0.1-0.2c0,0,0.1,0,0.2-0.1   c0.1-0.1,0.4-0.3,0.4-0.3l-0.1-0.3c-0.1-0.3-0.4-0.4-0.1-0.4c0.3,0,0.4,0,0.4,0l0.1-0.4c0,0,0.3,0,0.4,0c0.1,0,0.3-0.1,0.3-0.2   c0-0.1,0-0.1,0-0.2c0-0.1,0-0.2,0-0.2l-0.1-0.3c0.2-0.2,0.3-0.1,0.5-0.1c0.2,0,0.1,0.1,0.2,0c0.1-0.1,0,0,0.2-0.2   c0.2-0.3,0.1-0.4,0.1-0.4s0,0,0.2-0.2c0.1-0.2,0.1-0.1,0.2-0.3c0.1-0.2,0.2,0,0.2-0.3c0-0.3-0.2-0.2,0-0.3c0.2-0.1-0.1,0,0.3-0.2   c0.3-0.2,0.1-0.2,0.4-0.3c0.3-0.1,0.2-0.1,0.4-0.1c0.2,0,0,0,0.2-0.2c0.2-0.2,0.1-0.2,0.2-0.3c0.1-0.2,0-0.5,0-0.5   s-0.2-0.1-0.1-0.3c0.1-0.1-0.1-0.1,0.1-0.2c0.2-0.1,0.1-0.1,0.3-0.2c0.1-0.1,0.2-0.3,0.2-0.3s0-0.1,0.1-0.3   c0.1-0.2,0.2-0.2,0.1-0.3c-0.1-0.1-0.2-0.2-0.2-0.2L103,30c-0.2-0.1-0.1-0.2-0.3-0.2c-0.2,0-0.2,0-0.3-0.1   c-0.1-0.1-0.1-0.1-0.2-0.1c-0.2,0,0.1,0-0.3,0c-0.4,0-0.5,0-0.6,0c-0.1,0-0.3-0.1-0.3-0.1l-0.1-0.3c0,0,0.1,0,0.1-0.2   c0-0.1,0.1-0.1,0-0.3c-0.1-0.2-0.3-0.3-0.3-0.3l-0.4-0.2c-0.5-0.1-0.8-0.2-0.8-0.2s0.1-0.1-0.1-0.2c-0.2-0.1-0.8-0.3-0.8-0.3   l-0.3-0.1c0,0-0.4-0.1-0.5,0c-0.1,0.1,0.2,0.2-0.1,0.2c-0.4,0-0.2-0.3-0.2-0.3l-0.4,0.2l-0.2,0.2c0,0-0.1,0.1-0.2,0.1   c-0.1,0-0.2-0.1-0.2-0.1s-0.1-0.2-0.2-0.2c-0.1,0-0.2,0.1-0.3,0c-0.1-0.1-0.2-0.2-0.2-0.2s-0.1,0,0-0.2c0.1-0.2,0.2-0.5,0.2-0.5   l-0.2-0.1c0,0-0.1-0.2-0.2-0.1c-0.2,0.1-0.1,0.3-0.3,0.1c-0.2-0.2-0.3,0.1-0.2-0.2c0.1-0.2,0.2-0.1,0.1-0.3   c-0.1-0.2-0.3,0-0.1-0.2c0.2-0.2,0.5-0.1,0.2-0.3c-0.3-0.1-0.3-0.3-0.4-0.1c-0.1,0.2,0.1,0.1-0.2,0.3c-0.3,0.2-0.2,0.3-0.4,0.2   c-0.3-0.1-0.2,0-0.4-0.2c-0.2-0.1-0.2,0-0.2-0.2c0-0.1-0.1,0.1-0.1-0.3c0.1-0.4,0.1-0.4,0.1-0.5c0.3-0.3,0.5-0.5,0.8-0.8l0,0   c0.1,0,0.3,0.3,0.4,0.1c0.1-0.2-0.2-0.1,0.1-0.2c0.3-0.1,0.4-0.1,0.5,0c0.1,0,0.1,0.1,0.2,0.2c0.1,0.1,0.2,0.1,0.2,0.2   c0.1,0.1,0.1,0.1,0.2,0.3c0.2,0.1,0.4,0.4,0.4,0.2c-0.1-0.2-0.1-0.3-0.2-0.4c-0.1-0.1-0.1-0.1-0.1-0.3c0-0.1-0.1-0.3-0.1-0.3   l0.1-0.2c0,0,0.1-0.1,0.3-0.2c0.2-0.1,0.1,0,0.2-0.1c0.1-0.1,0.1-0.1,0.1-0.2c0-0.1,0.1-0.3,0.1-0.3L96.8,23l0-0.3   c0,0-0.1-0.1,0.1-0.2c0.3-0.2,0.1-0.1,0.3-0.2c0.2-0.1,0-0.1,0.3-0.2c0.2-0.1,0.3-0.2,0.4-0.3c0.1-0.1,0.1-0.2,0.1-0.2l0.3-0.1   c0.3-0.3,0.5-0.3,0.5-0.3l0.1,0.3c0.3-0.1,0.4-0.1,0.3-0.2c-0.1-0.1,0-0.1-0.1-0.2C99,21,98.9,21,98.9,20.9c0-0.2,0-0.2,0-0.2   l-0.2-0.1l-0.2,0.1c0.2-0.2,0.4-0.3,0.6-0.5c0,0,0.1,0,0.2,0c0.3,0,0.2,0,0.5-0.1c0.3-0.1,0.2-0.2,0.3-0.2c0.1,0,0.1,0,0-0.3   c0-0.1-0.1-0.2-0.1-0.2c5.4-4.7,11.5-9.1,16.7-12.1l0,0.1c0,0,0,0.1,0.1,0c0.1-0.1,0-0.1,0.2-0.2c0.1-0.1,0.2-0.1,0.2-0.1l0,0   C117.9,6.5,118.6,6.1,119.3,5.8z M104.2,6.4c0.9-0.9,1.2,0.9,2.1-0.2c0.5-0.3,0.8,1.5,1.1,0.7c0.9-2.2,8.1-3.5,7.8-0.8   c0.4,0.3,0.7,0.1,1.1-0.1c0.4,0.2,0.4-1.1,0.8-1.3c0.2,0.2,1.1,0.6,1.9,1c-0.7,0.3-1.4,0.6-2.1,1c0,0,0,0-0.1-0.1   c-0.2,0,0-0.1-0.3-0.1c-0.4,0-0.4-0.1-0.5,0c-0.1,0.1-0.1,0-0.1,0.1c0,0.1-0.1-0.1,0,0.1C116,7,115.5,6.9,116,7c0,0,0.1,0,0.1,0   c-1.4,0.7-2.9,1.5-4.4,2.4c0,0,0-0.1,0-0.1c0-0.1,0-0.1,0.1-0.2c0.1-0.1,0,0,0.1-0.2c0.2-0.2,0.2-0.3,0.2-0.3s0.2-0.1,0.2-0.2   c0-0.1,0.2,0-0.1-0.2c-0.2-0.2-0.4-0.2-0.4-0.2l-0.1-0.1l0.3-0.1l0.2-0.1c0,0,0,0.1,0.1,0.2c0.2,0,0.1,0,0.2,0   c0.1,0,0.1,0.1,0.2,0.1c0.1,0,0,0.1,0.1,0c0.2-0.1,0,0,0.2-0.1c0.2-0.1,0.1,0,0.2-0.1c0.1-0.1,0.1-0.1,0.1-0.2c0-0.1,0-0.1,0-0.2   c0-0.1,0-0.2-0.2-0.2c-0.1,0-0.2,0-0.2-0.1c-0.1,0-0.2-0.1-0.2,0c-0.1,0-0.1,0-0.2,0c-0.1,0-0.1,0-0.2,0c-0.1,0,0-0.1-0.1,0   c-0.1,0.1-0.2-0.2-0.1,0.1c0,0.3,0.1,0.3,0,0.3c-0.1,0.1-0.2,0-0.3,0c-0.1,0,0,0-0.1,0c-0.1,0-0.1,0-0.2,0.1   c-0.1,0-0.2-0.1-0.3,0.1c-0.1,0.2-0.1,0.1-0.1,0.2c0,0.1-0.1,0-0.1,0.2c0,0.2,0,0.5,0,0.6c0,0.1-0.1,0,0.1,0.3   c0.2,0.2,0.1,0.1,0.2,0.3c0.1,0.2,0.1,0.1,0.1,0.2c0,0.2,0,0.2,0,0.2c-2,1.2-4,2.5-6.1,3.8c-0.1,0-0.1,0-0.2,0   c-0.1,0-0.5,0.1-0.5,0c0-0.1-0.1,0,0-0.1c0.1-0.1,0-0.1,0.1-0.2c0.1-0.2,0-0.2,0.1-0.3c0-0.1-0.2-0.3,0.1-0.1   c0.3,0.2,0.3,0.2,0.3,0.3c0,0.1,0,0.1,0.1,0.1c0.1-0.1,0.1,0.1,0.1-0.2c0-0.3,0-0.3-0.1-0.4c-0.1-0.1-0.2-0.1-0.2-0.2   c0-0.1-0.1-0.3-0.1-0.3s0.1-0.2,0.3-0.2c0.2,0,0,0,0.2,0c0.2,0,0.2,0.1,0.2,0c0.1-0.1,0.1,0.1,0.1-0.1c0-0.2-0.1-0.2-0.1-0.3   c0,0-0.2,0,0-0.1c0.1-0.1,0.1,0,0.2-0.1c0.1-0.1,0.4,0.1,0.1-0.2c-0.3-0.3-0.3-0.4-0.3-0.4s-0.1-0.1,0-0.2c0.2-0.1,0.5,0,0.2-0.1   c-0.3-0.1-0.5-0.2-0.5-0.2s-0.2,0-0.2-0.2c0-0.2-0.1-0.2-0.1-0.3c0-0.1,0.2-0.2,0.2-0.4c0-0.1,0.1,0,0.1-0.2c0-0.3,0-0.1,0-0.3   c0-0.2-0.1,0,0-0.2c0.1-0.2,0,0,0.2-0.3c0.2-0.3,0.1-0.4,0.1-0.4s-0.2-0.1-0.3-0.3c-0.1-0.1-0.1-0.1-0.1-0.2c0-0.2,0.1-0.2,0-0.2   c-0.1,0,0.1,0-0.3,0c-0.3,0-0.4,0-0.5-0.1c-0.1-0.1-0.1,0-0.2-0.1c-0.1-0.1-0.2,0-0.2-0.2c0-0.1,0-0.2-0.1-0.3   C104.1,6.5,104.2,6.4,104.2,6.4z"></path>		<path class="st2" d="M98.9,43C61.2,48.4,110.8,6.6,125,3.5C108,7.3,53.5,49.5,98.9,43"></path>	</g>	<g>		<path class="st3" d="M9,37l-0.4,1.4H7.3L9,32.9h1.6l1.7,5.5H11L10.6,37H9z M10.4,36.1l-0.3-1.2c-0.1-0.3-0.2-0.7-0.3-1.1h0   c-0.1,0.3-0.2,0.7-0.3,1.1l-0.3,1.2H10.4z"></path>		<path class="st3" d="M17.5,38.2c-0.4,0.1-1.1,0.3-1.9,0.3c-1,0-1.7-0.3-2.3-0.7c-0.5-0.5-0.8-1.2-0.8-2c0-1.8,1.4-2.9,3.2-2.9   c0.7,0,1.3,0.1,1.5,0.3l-0.3,1c-0.3-0.1-0.7-0.2-1.3-0.2c-1,0-1.8,0.6-1.8,1.8c0,1.1,0.7,1.8,1.7,1.8c0.3,0,0.5,0,0.6-0.1v-1.2   h-0.9v-1h2.1V38.2z"></path>		<path class="st3" d="M18.5,33c0.4-0.1,1-0.1,1.7-0.1c0.8,0,1.4,0.1,1.8,0.4c0.3,0.3,0.5,0.7,0.5,1.2c0,0.7-0.5,1.2-1,1.4v0   c0.4,0.2,0.6,0.5,0.7,1c0.2,0.6,0.3,1.4,0.5,1.6h-1.3c-0.1-0.2-0.2-0.6-0.4-1.3c-0.1-0.7-0.4-0.9-0.9-0.9h-0.4v2.2h-1.2V33z    M19.8,35.4h0.5c0.6,0,1-0.3,1-0.8c0-0.5-0.3-0.8-0.9-0.8c-0.3,0-0.5,0-0.6,0V35.4z"></path>		<path class="st3" d="M28.4,35.6c0,1.8-1.1,2.9-2.7,2.9c-1.6,0-2.6-1.2-2.6-2.8c0-1.7,1.1-2.9,2.7-2.9   C27.5,32.8,28.4,34.1,28.4,35.6z M24.4,35.7c0,1.1,0.5,1.9,1.4,1.9c0.8,0,1.3-0.8,1.3-1.9c0-1-0.5-1.9-1.3-1.9   C24.9,33.8,24.4,34.6,24.4,35.7z"></path>		<path class="st3" d="M30.5,32.9v5.5h-1.3v-5.5H30.5z"></path>		<path class="st3" d="M31.6,38.4v-5.5h1.5l1.2,2c0.3,0.6,0.7,1.3,0.9,1.9h0c-0.1-0.7-0.1-1.5-0.1-2.3v-1.6h1.2v5.5h-1.3l-1.2-2.1   c-0.3-0.6-0.7-1.3-1-2l0,0c0,0.7,0,1.5,0,2.4v1.7H31.6z"></path>		<path class="st3" d="M37.3,33c0.5-0.1,1.1-0.1,1.7-0.1c1.1,0,1.7,0.2,2.3,0.6c0.6,0.4,0.9,1.1,0.9,2.1c0,1.1-0.4,1.8-0.9,2.2   c-0.6,0.5-1.5,0.7-2.6,0.7c-0.7,0-1.1,0-1.4-0.1V33z M38.6,37.5c0.1,0,0.3,0,0.4,0c1.1,0,1.9-0.6,1.9-1.9c0-1.2-0.7-1.8-1.7-1.8   c-0.3,0-0.5,0-0.6,0V37.5z"></path>		<path class="st3" d="M44.3,32.9v3.2c0,1,0.4,1.4,1,1.4c0.7,0,1-0.5,1-1.4v-3.2h1.3V36c0,1.7-0.9,2.5-2.3,2.5   c-1.4,0-2.2-0.8-2.2-2.5v-3.1H44.3z M46.7,31.6l-1,1h-1l0.7-1H46.7z"></path>		<path class="st3" d="M48.7,37.2c0.3,0.2,0.9,0.3,1.4,0.3c0.6,0,0.9-0.2,0.9-0.6c0-0.3-0.3-0.5-0.9-0.8c-0.9-0.3-1.5-0.8-1.5-1.6   c0-0.9,0.8-1.7,2.1-1.7c0.6,0,1.1,0.1,1.4,0.3l-0.3,1c-0.2-0.1-0.6-0.3-1.2-0.3c-0.5,0-0.8,0.2-0.8,0.5c0,0.4,0.3,0.5,1,0.8   c1,0.4,1.4,0.9,1.4,1.7c0,0.9-0.7,1.7-2.2,1.7c-0.6,0-1.3-0.2-1.6-0.3L48.7,37.2z"></path>		<path class="st3" d="M54.2,34h-1.5v-1.1h4.3V34h-1.5v4.5h-1.3V34z"></path>		<path class="st3" d="M57.6,33c0.4-0.1,1-0.1,1.7-0.1c0.8,0,1.4,0.1,1.8,0.4c0.3,0.3,0.5,0.7,0.5,1.2c0,0.7-0.5,1.2-1,1.4v0   c0.4,0.2,0.6,0.5,0.7,1c0.2,0.6,0.3,1.4,0.5,1.6h-1.3c-0.1-0.2-0.2-0.6-0.4-1.3c-0.1-0.7-0.4-0.9-0.9-0.9h-0.4v2.2h-1.2V33z    M58.8,35.4h0.5c0.6,0,1-0.3,1-0.8c0-0.5-0.3-0.8-0.9-0.8c-0.3,0-0.5,0-0.6,0V35.4z"></path>		<path class="st3" d="M63.7,32.9v5.5h-1.3v-5.5H63.7z"></path>		<path class="st3" d="M66.1,37l-0.4,1.4h-1.3l1.7-5.5h1.6l1.7,5.5h-1.4L67.7,37H66.1z M67.5,36.1l-0.3-1.2   c-0.1-0.3-0.2-0.7-0.3-1.1h0c-0.1,0.3-0.2,0.7-0.3,1.1l-0.3,1.2H67.5z"></path>	</g>	<g>		<path class="st0" d="M15.1,90c0,2.8-1.7,4.6-4.4,4.6c-2.7,0-4.2-2.1-4.2-4.5c0-2.6,1.7-4.6,4.4-4.6C13.7,85.5,15.1,87.6,15.1,90z    M9,90.1c0,1.6,0.7,2.7,1.9,2.7s1.8-1.1,1.8-2.7c0-1.5-0.7-2.7-1.8-2.7C9.7,87.4,9,88.5,9,90.1z"></path>		<path class="st0" d="M16.4,85.8c0.7-0.1,1.7-0.2,2.9-0.2c1.3,0,2.3,0.2,3,0.7c0.6,0.4,0.9,1.1,0.9,1.9c0,1.1-0.8,1.9-1.5,2.1v0.1   c0.6,0.2,0.9,0.8,1.1,1.6c0.3,0.9,0.6,2.2,0.7,2.5H21c-0.1-0.3-0.4-0.9-0.6-2c-0.2-1.1-0.6-1.3-1.3-1.3h-0.4v3.3h-2.3V85.8z    M18.7,89.5h0.6c0.9,0,1.4-0.4,1.4-1.1c0-0.7-0.4-1-1.2-1c-0.4,0-0.7,0-0.8,0.1V89.5z"></path>		<path class="st0" d="M32,94.1c-0.7,0.2-1.9,0.5-3,0.5c-1.7,0-2.9-0.4-3.7-1.2c-0.8-0.8-1.3-1.9-1.3-3.2c0-3.1,2.3-4.6,5.2-4.6   c1.2,0,2.1,0.2,2.6,0.4l-0.5,1.9c-0.5-0.2-1.1-0.4-2.1-0.4c-1.5,0-2.7,0.8-2.7,2.6c0,1.6,1.1,2.6,2.5,2.6c0.3,0,0.6,0,0.7-0.1   v-1.5h-1.2v-1.8H32V94.1z"></path>		<path class="st0" d="M35.8,92.4l-0.5,2h-2.4l2.6-8.8h3.1l2.6,8.8h-2.6l-0.6-2H35.8z M37.7,90.7l-0.4-1.6c-0.1-0.5-0.3-1.2-0.4-1.7   h0c-0.1,0.5-0.3,1.3-0.4,1.8l-0.4,1.6H37.7z"></path>		<path class="st0" d="M42.3,94.5v-8.8h2.8l1.4,2.7c0.5,0.9,1,2.1,1.4,3.1h0c-0.1-1.2-0.2-2.4-0.2-3.7v-2.1h2.2v8.8h-2.5l-1.5-2.9   c-0.5-0.9-1.1-2.1-1.5-3.2h0c0.1,1.2,0.1,2.5,0.1,4v2.2H42.3z"></path>		<path class="st0" d="M53.9,85.7v8.8h-2.4v-8.8H53.9z"></path>		<path class="st0" d="M62.1,94.3c-0.3,0.2-1.2,0.4-2.2,0.4c-3.3,0-4.8-2.1-4.8-4.4c0-3.1,2.3-4.7,4.9-4.7c1,0,1.8,0.2,2.2,0.4   l-0.5,1.9c-0.4-0.2-0.9-0.3-1.6-0.3c-1.4,0-2.5,0.8-2.5,2.6c0,1.6,1,2.6,2.6,2.6c0.6,0,1.2-0.1,1.6-0.3L62.1,94.3z"></path>		<path class="st0" d="M67.6,94.5v-3.6l-2.8-5.3h2.7l0.7,2c0.2,0.6,0.4,1.1,0.6,1.6h0c0.2-0.5,0.4-1,0.6-1.6l0.7-2h2.7l-2.9,5.2v3.7   H67.6z"></path>		<path class="st0" d="M79,90.9h-3.2v1.6h3.5v1.9h-5.9v-8.8h5.7v1.9h-3.4V89H79V90.9z"></path>		<path class="st0" d="M80.7,85.8c0.7-0.1,1.7-0.2,2.9-0.2c1.3,0,2.3,0.2,3,0.7c0.6,0.4,0.9,1.1,0.9,1.9c0,1.1-0.8,1.9-1.5,2.1v0.1   c0.6,0.2,0.9,0.8,1.1,1.6c0.3,0.9,0.6,2.2,0.7,2.5h-2.4c-0.1-0.3-0.4-0.9-0.6-2c-0.2-1.1-0.6-1.3-1.3-1.3H83v3.3h-2.3V85.8z    M83,89.5h0.6c0.9,0,1.4-0.4,1.4-1.1c0-0.7-0.4-1-1.2-1c-0.4,0-0.7,0-0.8,0.1V89.5z"></path>		<path class="st0" d="M88.7,85.8c0.5-0.1,1.7-0.2,2.8-0.2c1.3,0,2,0.1,2.7,0.4c0.7,0.3,1.2,1,1.2,1.8c0,0.7-0.4,1.5-1.4,1.9v0   c1.1,0.3,1.7,1.1,1.7,2.1c0,0.8-0.4,1.5-1,1.9c-0.7,0.5-1.8,0.8-3.7,0.8c-1.1,0-1.8-0.1-2.3-0.1V85.8z M91.1,89h0.5   c1,0,1.5-0.4,1.5-0.9c0-0.5-0.4-0.9-1.2-0.9c-0.4,0-0.6,0-0.8,0.1V89z M91.1,92.8c0.2,0,0.4,0,0.7,0c0.8,0,1.5-0.3,1.5-1.1   c0-0.7-0.7-1-1.6-1h-0.6V92.8z"></path>		<path class="st0" d="M99.2,92.4l-0.5,2h-2.4l2.6-8.8h3.1l2.6,8.8h-2.6l-0.6-2H99.2z M101.2,90.7l-0.4-1.6   c-0.1-0.5-0.3-1.2-0.4-1.7h0c-0.1,0.5-0.3,1.3-0.4,1.8l-0.4,1.6H101.2z"></path>		<path class="st0" d="M115.8,91.3c0-1-0.1-2.2,0-3.6h0c-0.3,1.2-0.6,2.5-0.9,3.5l-0.9,3.1h-1.8l-0.7-3.1c-0.2-1-0.5-2.3-0.7-3.5h0   c-0.1,1.2-0.1,2.6-0.1,3.6l-0.1,3.2h-2.2l0.5-8.8h3.2l0.6,2.4c0.2,1,0.5,2.2,0.7,3.2h0.1c0.2-1.1,0.5-2.3,0.8-3.2l0.7-2.4h3.1   l0.4,8.8h-2.3L115.8,91.3z"></path>		<path class="st0" d="M122,92.4l-0.5,2H119l2.6-8.8h3.1l2.6,8.8h-2.6l-0.6-2H122z M123.9,90.7l-0.4-1.6c-0.1-0.5-0.3-1.2-0.4-1.7h0   c-0.1,0.5-0.3,1.3-0.4,1.8l-0.4,1.6H123.9z"></path>		<path class="st0" d="M129.1,87.6h-2.3v-2h6.9v2h-2.3v6.8h-2.4V87.6z"></path>		<path class="st0" d="M140.4,90.9h-3.2v1.6h3.5v1.9h-5.9v-8.8h5.7v1.9h-3.4V89h3.2V90.9z"></path>	</g></g></svg>